<svg width="588" height="274" viewBox="0 0 588 274" fill="none" xmlns="http://www.w3.org/2000/svg">
<circle cx="5" cy="5" r="5" transform="matrix(0 -1 -1 0 588 274)" fill="#317302"/>
<circle cx="5" cy="5" r="5" transform="matrix(0 -1 -1 0 588 230)" fill="#317302"/>
<circle cx="5" cy="5" r="5" transform="matrix(0 -1 -1 0 588 186)" fill="#317302"/>
<circle cx="5" cy="5" r="5" transform="matrix(0 -1 -1 0 588 142)" fill="#317302"/>
<circle cx="5" cy="5" r="5" transform="matrix(0 -1 -1 0 588 98)" fill="#317302"/>
<circle cx="5" cy="5" r="5" transform="matrix(0 -1 -1 0 588 54)" fill="#317302"/>
<circle cx="5" cy="5" r="5" transform="matrix(0 -1 -1 0 588 10)" fill="#317302"/>
<circle cx="5" cy="5" r="5" transform="matrix(0 -1 -1 0 554 274)" fill="#317302"/>
<circle cx="5" cy="5" r="5" transform="matrix(0 -1 -1 0 520 274)" fill="#317302"/>
<circle cx="5" cy="5" r="5" transform="matrix(0 -1 -1 0 486 274)" fill="#317302"/>
<circle cx="5" cy="5" r="5" transform="matrix(0 -1 -1 0 452 274)" fill="#317302"/>
<circle cx="5" cy="5" r="5" transform="matrix(0 -1 -1 0 418 274)" fill="#317302"/>
<circle cx="5" cy="5" r="5" transform="matrix(0 -1 -1 0 384 274)" fill="#317302"/>
<circle cx="5" cy="5" r="5" transform="matrix(0 -1 -1 0 350 274)" fill="#317302"/>
<circle cx="5" cy="5" r="5" transform="matrix(0 -1 -1 0 316 274)" fill="#317302"/>
<circle cx="5" cy="5" r="5" transform="matrix(0 -1 -1 0 282 274)" fill="#317302"/>
<circle cx="5" cy="5" r="5" transform="matrix(0 -1 -1 0 248 274)" fill="#317302"/>
<circle cx="5" cy="5" r="5" transform="matrix(0 -1 -1 0 214 274)" fill="#317302"/>
<circle cx="5" cy="5" r="5" transform="matrix(0 -1 -1 0 180 274)" fill="#317302"/>
<circle cx="5" cy="5" r="5" transform="matrix(0 -1 -1 0 146 274)" fill="#317302"/>
<circle cx="5" cy="5" r="5" transform="matrix(0 -1 -1 0 112 274)" fill="#317302"/>
<circle cx="5" cy="5" r="5" transform="matrix(0 -1 -1 0 78 274)" fill="#317302"/>
<circle cx="5" cy="5" r="5" transform="matrix(0 -1 -1 0 44 274)" fill="#317302"/>
<circle cx="5" cy="5" r="5" transform="matrix(0 -1 -1 0 10 274)" fill="#317302"/>
<circle cx="5" cy="5" r="5" transform="matrix(0 -1 -1 0 554 230)" fill="#317302"/>
<circle cx="5" cy="5" r="5" transform="matrix(0 -1 -1 0 520 230)" fill="#317302"/>
<circle cx="5" cy="5" r="5" transform="matrix(0 -1 -1 0 486 230)" fill="#317302"/>
<circle cx="5" cy="5" r="5" transform="matrix(0 -1 -1 0 452 230)" fill="#317302"/>
<circle cx="5" cy="5" r="5" transform="matrix(0 -1 -1 0 418 230)" fill="#317302"/>
<circle cx="5" cy="5" r="5" transform="matrix(0 -1 -1 0 384 230)" fill="#317302"/>
<circle cx="5" cy="5" r="5" transform="matrix(0 -1 -1 0 350 230)" fill="#317302"/>
<circle cx="5" cy="5" r="5" transform="matrix(0 -1 -1 0 316 230)" fill="#317302"/>
<circle cx="5" cy="5" r="5" transform="matrix(0 -1 -1 0 282 230)" fill="#317302"/>
<circle cx="5" cy="5" r="5" transform="matrix(0 -1 -1 0 248 230)" fill="#317302"/>
<circle cx="5" cy="5" r="5" transform="matrix(0 -1 -1 0 214 230)" fill="#317302"/>
<circle cx="5" cy="5" r="5" transform="matrix(0 -1 -1 0 180 230)" fill="#317302"/>
<circle cx="5" cy="5" r="5" transform="matrix(0 -1 -1 0 146 230)" fill="#317302"/>
<circle cx="5" cy="5" r="5" transform="matrix(0 -1 -1 0 112 230)" fill="#317302"/>
<circle cx="5" cy="5" r="5" transform="matrix(0 -1 -1 0 78 230)" fill="#317302"/>
<circle cx="5" cy="5" r="5" transform="matrix(0 -1 -1 0 44 230)" fill="#317302"/>
<circle cx="5" cy="5" r="5" transform="matrix(0 -1 -1 0 10 230)" fill="#317302"/>
<circle cx="5" cy="5" r="5" transform="matrix(0 -1 -1 0 554 186)" fill="#317302"/>
<circle cx="5" cy="5" r="5" transform="matrix(0 -1 -1 0 520 186)" fill="#317302"/>
<circle cx="5" cy="5" r="5" transform="matrix(0 -1 -1 0 486 186)" fill="#317302"/>
<circle cx="5" cy="5" r="5" transform="matrix(0 -1 -1 0 452 186)" fill="#317302"/>
<circle cx="5" cy="5" r="5" transform="matrix(0 -1 -1 0 418 186)" fill="#317302"/>
<circle cx="5" cy="5" r="5" transform="matrix(0 -1 -1 0 384 186)" fill="#317302"/>
<circle cx="5" cy="5" r="5" transform="matrix(0 -1 -1 0 350 186)" fill="#317302"/>
<circle cx="5" cy="5" r="5" transform="matrix(0 -1 -1 0 316 186)" fill="#317302"/>
<circle cx="5" cy="5" r="5" transform="matrix(0 -1 -1 0 282 186)" fill="#317302"/>
<circle cx="5" cy="5" r="5" transform="matrix(0 -1 -1 0 248 186)" fill="#317302"/>
<circle cx="5" cy="5" r="5" transform="matrix(0 -1 -1 0 214 186)" fill="#317302"/>
<circle cx="5" cy="5" r="5" transform="matrix(0 -1 -1 0 180 186)" fill="#317302"/>
<circle cx="5" cy="5" r="5" transform="matrix(0 -1 -1 0 146 186)" fill="#317302"/>
<circle cx="5" cy="5" r="5" transform="matrix(0 -1 -1 0 112 186)" fill="#317302"/>
<circle cx="5" cy="5" r="5" transform="matrix(0 -1 -1 0 78 186)" fill="#317302"/>
<circle cx="5" cy="5" r="5" transform="matrix(0 -1 -1 0 44 186)" fill="#317302"/>
<circle cx="5" cy="5" r="5" transform="matrix(0 -1 -1 0 10 186)" fill="#317302"/>
<circle cx="5" cy="5" r="5" transform="matrix(0 -1 -1 0 554 142)" fill="#317302"/>
<circle cx="5" cy="5" r="5" transform="matrix(0 -1 -1 0 520 142)" fill="#317302"/>
<circle cx="5" cy="5" r="5" transform="matrix(0 -1 -1 0 486 142)" fill="#317302"/>
<circle cx="5" cy="5" r="5" transform="matrix(0 -1 -1 0 452 142)" fill="#317302"/>
<circle cx="5" cy="5" r="5" transform="matrix(0 -1 -1 0 418 142)" fill="#317302"/>
<circle cx="5" cy="5" r="5" transform="matrix(0 -1 -1 0 384 142)" fill="#317302"/>
<circle cx="5" cy="5" r="5" transform="matrix(0 -1 -1 0 350 142)" fill="#317302"/>
<circle cx="5" cy="5" r="5" transform="matrix(0 -1 -1 0 316 142)" fill="#317302"/>
<circle cx="5" cy="5" r="5" transform="matrix(0 -1 -1 0 282 142)" fill="#317302"/>
<circle cx="5" cy="5" r="5" transform="matrix(0 -1 -1 0 248 142)" fill="#317302"/>
<circle cx="5" cy="5" r="5" transform="matrix(0 -1 -1 0 214 142)" fill="#317302"/>
<circle cx="5" cy="5" r="5" transform="matrix(0 -1 -1 0 180 142)" fill="#317302"/>
<circle cx="5" cy="5" r="5" transform="matrix(0 -1 -1 0 146 142)" fill="#317302"/>
<circle cx="5" cy="5" r="5" transform="matrix(0 -1 -1 0 112 142)" fill="#317302"/>
<circle cx="5" cy="5" r="5" transform="matrix(0 -1 -1 0 78 142)" fill="#317302"/>
<circle cx="5" cy="5" r="5" transform="matrix(0 -1 -1 0 44 142)" fill="#317302"/>
<circle cx="5" cy="5" r="5" transform="matrix(0 -1 -1 0 10 142)" fill="#317302"/>
<circle cx="5" cy="5" r="5" transform="matrix(0 -1 -1 0 554 98)" fill="#317302"/>
<circle cx="5" cy="5" r="5" transform="matrix(0 -1 -1 0 520 98)" fill="#317302"/>
<circle cx="5" cy="5" r="5" transform="matrix(0 -1 -1 0 486 98)" fill="#317302"/>
<circle cx="5" cy="5" r="5" transform="matrix(0 -1 -1 0 452 98)" fill="#317302"/>
<circle cx="5" cy="5" r="5" transform="matrix(0 -1 -1 0 418 98)" fill="#317302"/>
<circle cx="5" cy="5" r="5" transform="matrix(0 -1 -1 0 384 98)" fill="#317302"/>
<circle cx="5" cy="5" r="5" transform="matrix(0 -1 -1 0 350 98)" fill="#317302"/>
<circle cx="5" cy="5" r="5" transform="matrix(0 -1 -1 0 316 98)" fill="#317302"/>
<circle cx="5" cy="5" r="5" transform="matrix(0 -1 -1 0 282 98)" fill="#317302"/>
<circle cx="5" cy="5" r="5" transform="matrix(0 -1 -1 0 248 98)" fill="#317302"/>
<circle cx="5" cy="5" r="5" transform="matrix(0 -1 -1 0 214 98)" fill="#317302"/>
<circle cx="5" cy="5" r="5" transform="matrix(0 -1 -1 0 180 98)" fill="#317302"/>
<circle cx="5" cy="5" r="5" transform="matrix(0 -1 -1 0 146 98)" fill="#317302"/>
<circle cx="5" cy="5" r="5" transform="matrix(0 -1 -1 0 112 98)" fill="#317302"/>
<circle cx="5" cy="5" r="5" transform="matrix(0 -1 -1 0 78 98)" fill="#317302"/>
<circle cx="5" cy="5" r="5" transform="matrix(0 -1 -1 0 44 98)" fill="#317302"/>
<circle cx="5" cy="5" r="5" transform="matrix(0 -1 -1 0 10 98)" fill="#317302"/>
<circle cx="5" cy="5" r="5" transform="matrix(0 -1 -1 0 554 54)" fill="#317302"/>
<circle cx="5" cy="5" r="5" transform="matrix(0 -1 -1 0 520 54)" fill="#317302"/>
<circle cx="5" cy="5" r="5" transform="matrix(0 -1 -1 0 486 54)" fill="#317302"/>
<circle cx="5" cy="5" r="5" transform="matrix(0 -1 -1 0 452 54)" fill="#317302"/>
<circle cx="5" cy="5" r="5" transform="matrix(0 -1 -1 0 418 54)" fill="#317302"/>
<circle cx="5" cy="5" r="5" transform="matrix(0 -1 -1 0 384 54)" fill="#317302"/>
<circle cx="5" cy="5" r="5" transform="matrix(0 -1 -1 0 350 54)" fill="#317302"/>
<circle cx="5" cy="5" r="5" transform="matrix(0 -1 -1 0 316 54)" fill="#317302"/>
<circle cx="5" cy="5" r="5" transform="matrix(0 -1 -1 0 282 54)" fill="#317302"/>
<circle cx="5" cy="5" r="5" transform="matrix(0 -1 -1 0 248 54)" fill="#317302"/>
<circle cx="5" cy="5" r="5" transform="matrix(0 -1 -1 0 214 54)" fill="#317302"/>
<circle cx="5" cy="5" r="5" transform="matrix(0 -1 -1 0 180 54)" fill="#317302"/>
<circle cx="5" cy="5" r="5" transform="matrix(0 -1 -1 0 146 54)" fill="#317302"/>
<circle cx="5" cy="5" r="5" transform="matrix(0 -1 -1 0 112 54)" fill="#317302"/>
<circle cx="5" cy="5" r="5" transform="matrix(0 -1 -1 0 78 54)" fill="#317302"/>
<circle cx="5" cy="5" r="5" transform="matrix(0 -1 -1 0 44 54)" fill="#317302"/>
<circle cx="5" cy="5" r="5" transform="matrix(0 -1 -1 0 10 54)" fill="#317302"/>
<circle cx="5" cy="5" r="5" transform="matrix(0 -1 -1 0 554 10)" fill="#317302"/>
<circle cx="5" cy="5" r="5" transform="matrix(0 -1 -1 0 520 10)" fill="#317302"/>
<circle cx="5" cy="5" r="5" transform="matrix(0 -1 -1 0 486 10)" fill="#317302"/>
<circle cx="5" cy="5" r="5" transform="matrix(0 -1 -1 0 452 10)" fill="#317302"/>
<circle cx="5" cy="5" r="5" transform="matrix(0 -1 -1 0 418 10)" fill="#317302"/>
<circle cx="5" cy="5" r="5" transform="matrix(0 -1 -1 0 384 10)" fill="#317302"/>
<circle cx="5" cy="5" r="5" transform="matrix(0 -1 -1 0 350 10)" fill="#317302"/>
<circle cx="5" cy="5" r="5" transform="matrix(0 -1 -1 0 316 10)" fill="#317302"/>
<circle cx="5" cy="5" r="5" transform="matrix(0 -1 -1 0 282 10)" fill="#317302"/>
<circle cx="5" cy="5" r="5" transform="matrix(0 -1 -1 0 248 10)" fill="#317302"/>
<circle cx="5" cy="5" r="5" transform="matrix(0 -1 -1 0 214 10)" fill="#317302"/>
<circle cx="5" cy="5" r="5" transform="matrix(0 -1 -1 0 180 10)" fill="#317302"/>
<circle cx="5" cy="5" r="5" transform="matrix(0 -1 -1 0 146 10)" fill="#317302"/>
<circle cx="5" cy="5" r="5" transform="matrix(0 -1 -1 0 112 10)" fill="#317302"/>
<circle cx="5" cy="5" r="5" transform="matrix(0 -1 -1 0 78 10)" fill="#317302"/>
<circle cx="5" cy="5" r="5" transform="matrix(0 -1 -1 0 44 10)" fill="#317302"/>
<circle cx="5" cy="5" r="5" transform="matrix(0 -1 -1 0 10 10)" fill="#317302"/>
</svg>
