<svg width="816" height="459" viewBox="0 0 816 459" fill="none" xmlns="http://www.w3.org/2000/svg">
<rect width="816" height="459" fill="white"/>
<g clip-path="url(#clip0_303_330)">
<path d="M506.729 245.019C505.861 245.019 505.029 245.364 504.416 245.977C503.802 246.591 503.457 247.423 503.457 248.29V258.104H311.543V248.29C311.543 247.423 311.198 246.591 310.584 245.977C309.971 245.364 309.139 245.019 308.271 245.019C307.404 245.019 306.572 245.364 305.958 245.977C305.345 246.591 305 247.423 305 248.29V328.169C305 329.037 305.345 329.869 305.958 330.482C306.572 331.096 307.404 331.441 308.271 331.441H506.729C507.596 331.441 508.428 331.096 509.042 330.482C509.655 329.869 510 329.037 510 328.169V248.29C510 247.423 509.655 246.591 509.042 245.977C508.428 245.364 507.596 245.019 506.729 245.019ZM503.457 271.189H334.441C333.574 271.189 332.742 271.534 332.128 272.147C331.515 272.761 331.17 273.593 331.17 274.461C331.17 275.328 331.515 276.16 332.128 276.774C332.742 277.387 333.574 277.732 334.441 277.732H503.457V324.898H311.543V277.732H321.356C322.224 277.732 323.056 277.387 323.67 276.774C324.283 276.16 324.628 275.328 324.628 274.461C324.628 273.593 324.283 272.761 323.67 272.147C323.056 271.534 322.224 271.189 321.356 271.189H311.543V264.647H503.457V271.189Z" fill="#317302"/>
<path d="M387.558 250.825C388.141 251.302 388.871 251.563 389.624 251.562C390.11 251.563 390.59 251.455 391.028 251.247C391.467 251.039 391.854 250.736 392.16 250.359L428.43 205.929C428.978 205.257 429.238 204.394 429.15 203.531C429.063 202.668 428.636 201.875 427.964 201.326C427.292 200.777 426.43 200.518 425.566 200.605C424.703 200.693 423.91 201.119 423.361 201.791L387.092 246.222C386.544 246.894 386.285 247.757 386.372 248.62C386.459 249.483 386.886 250.276 387.558 250.825ZM403.667 246.222C403.127 246.895 402.874 247.754 402.964 248.612C403.054 249.471 403.48 250.258 404.149 250.804C404.817 251.35 405.674 251.609 406.533 251.526C407.392 251.443 408.184 251.023 408.735 250.359L444.998 205.937L445.004 205.929C445.205 205.682 445.422 205.443 445.646 205.219C449.29 201.575 455.22 201.575 458.864 205.219L467.883 214.238C471.528 217.883 471.528 223.812 467.883 227.457C467.658 227.682 467.421 227.897 467.174 228.099L445.542 245.756C445.019 246.183 444.641 246.762 444.46 247.412C444.279 248.063 444.303 248.753 444.53 249.39C444.757 250.026 445.175 250.576 445.727 250.965C446.279 251.354 446.938 251.562 447.613 251.562C448.366 251.563 449.097 251.302 449.679 250.825L471.311 233.166C471.729 232.826 472.128 232.464 472.509 232.083C477.889 226.703 478.594 218.394 474.631 212.243C483.49 204.37 494.777 200.065 506.728 200.065C507.595 200.065 508.428 199.72 509.041 199.106C509.655 198.493 509.999 197.661 509.999 196.793C509.999 195.926 509.655 195.094 509.041 194.48C508.428 193.867 507.595 193.522 506.728 193.522C493.489 193.522 480.966 198.175 471.024 206.704L498.608 179.121C499.221 178.508 499.566 177.676 499.566 176.808C499.566 175.94 499.221 175.108 498.608 174.495C497.994 173.882 497.162 173.537 496.295 173.537C495.427 173.537 494.595 173.882 493.982 174.495L466.4 202.077C474.928 192.134 479.581 179.613 479.581 166.375C479.581 165.507 479.236 164.675 478.623 164.062C478.009 163.448 477.177 163.104 476.309 163.104C475.442 163.104 474.61 163.448 473.996 164.062C473.383 164.675 473.038 165.507 473.038 166.375C473.038 178.325 468.732 189.613 460.859 198.472C454.708 194.508 446.399 195.213 441.02 200.593C440.639 200.974 440.277 201.374 439.936 201.791L439.945 201.797C439.798 201.961 439.662 202.128 439.529 202.29L403.667 246.222ZM321.346 251.561C322.214 251.561 323.046 251.217 323.659 250.603C324.273 249.99 324.617 249.158 324.617 248.29V169.018H371.056V248.29C371.056 249.158 371.401 249.99 372.014 250.603C372.628 251.217 373.46 251.561 374.328 251.561C375.195 251.561 376.027 251.217 376.641 250.603C377.254 249.99 377.599 249.158 377.599 248.29V166.794L389.904 149.548L399.128 162.475H390.402C389.534 162.475 388.702 162.82 388.089 163.433C387.475 164.047 387.13 164.879 387.13 165.746C387.13 166.614 387.475 167.446 388.089 168.059C388.702 168.673 389.534 169.018 390.402 169.018H402.209V208.176C402.209 209.044 402.554 209.876 403.167 210.49C403.781 211.103 404.613 211.448 405.481 211.448C406.348 211.448 407.18 211.103 407.794 210.49C408.407 209.876 408.752 209.044 408.752 208.176V165.747C408.752 165.065 408.539 164.401 408.143 163.847L393.175 142.869V130.831C393.175 129.963 392.831 129.131 392.217 128.518C391.604 127.904 390.772 127.56 389.904 127.56H336.922C336.055 127.56 335.223 127.904 334.609 128.518C333.996 129.131 333.651 129.963 333.651 130.831V142.868L318.683 163.847C318.287 164.401 318.074 165.065 318.074 165.747V248.29C318.074 249.158 318.419 249.99 319.033 250.603C319.646 251.217 320.478 251.561 321.346 251.561ZM340.194 134.102H386.633V140.645H340.194V134.102ZM338.607 147.187H383.551L372.643 162.475H327.698L338.607 147.187ZM493.643 251.562C494.511 251.562 495.343 251.217 495.956 250.604C496.57 249.99 496.914 249.158 496.914 248.291V242.855C496.914 236.053 492.615 229.887 486.216 227.512C485.813 227.363 485.385 227.294 484.956 227.31C484.526 227.326 484.105 227.427 483.714 227.606C482.925 227.968 482.313 228.628 482.011 229.441C481.709 230.254 481.743 231.154 482.104 231.943C482.466 232.732 483.126 233.344 483.94 233.646C487.787 235.074 490.372 238.774 490.372 242.855V248.291C490.372 249.158 490.717 249.99 491.33 250.604C491.944 251.217 492.776 251.562 493.643 251.562Z" fill="url(#paint0_linear_303_330)"/>
</g>
<defs>
<linearGradient id="paint0_linear_303_330" x1="297.5" y1="141" x2="517.5" y2="252" gradientUnits="userSpaceOnUse">
<stop stop-color="#E45302" stop-opacity="0.35"/>
<stop offset="1" stop-color="#E45302"/>
</linearGradient>
<clipPath id="clip0_303_330">
<rect width="205" height="205" fill="white" transform="translate(305 127)"/>
</clipPath>
</defs>
</svg>
