<svg width="130" height="130" viewBox="0 0 130 130" fill="none" xmlns="http://www.w3.org/2000/svg">
<circle cx="5" cy="5" r="5" transform="matrix(0 -1 -1 0 10 10)" fill="#317302"/>
<circle cx="5" cy="5" r="5" transform="matrix(0 -1 -1 0 40 10)" fill="#317302"/>
<circle cx="5" cy="5" r="5" transform="matrix(0 -1 -1 0 70 10)" fill="#317302"/>
<circle cx="5" cy="5" r="5" transform="matrix(0 -1 -1 0 100 10)" fill="#317302"/>
<circle cx="5" cy="5" r="5" transform="matrix(0 -1 -1 0 130 10)" fill="#317302"/>
<circle cx="5" cy="5" r="5" transform="matrix(0 -1 -1 0 10 40)" fill="#317302"/>
<circle cx="5" cy="5" r="5" transform="matrix(0 -1 -1 0 10 70)" fill="#317302"/>
<circle cx="5" cy="5" r="5" transform="matrix(0 -1 -1 0 10 100)" fill="#317302"/>
<circle cx="5" cy="5" r="5" transform="matrix(0 -1 -1 0 10 130)" fill="#317302"/>
<circle cx="5" cy="5" r="5" transform="matrix(0 -1 -1 0 40 40)" fill="#317302"/>
<circle cx="5" cy="5" r="5" transform="matrix(0 -1 -1 0 40 70)" fill="#317302"/>
<circle cx="5" cy="5" r="5" transform="matrix(0 -1 -1 0 40 100)" fill="#317302"/>
<circle cx="5" cy="5" r="5" transform="matrix(0 -1 -1 0 40 130)" fill="#317302"/>
<circle cx="5" cy="5" r="5" transform="matrix(0 -1 -1 0 70 40)" fill="#317302"/>
<circle cx="5" cy="5" r="5" transform="matrix(0 -1 -1 0 70 70)" fill="#317302"/>
<circle cx="5" cy="5" r="5" transform="matrix(0 -1 -1 0 70 100)" fill="#317302"/>
<circle cx="5" cy="5" r="5" transform="matrix(0 -1 -1 0 70 130)" fill="#317302"/>
<circle cx="5" cy="5" r="5" transform="matrix(0 -1 -1 0 100 40)" fill="#317302"/>
<circle cx="5" cy="5" r="5" transform="matrix(0 -1 -1 0 100 70)" fill="#317302"/>
<circle cx="5" cy="5" r="5" transform="matrix(0 -1 -1 0 100 100)" fill="#317302"/>
<circle cx="5" cy="5" r="5" transform="matrix(0 -1 -1 0 100 130)" fill="#317302"/>
<circle cx="5" cy="5" r="5" transform="matrix(0 -1 -1 0 130 40)" fill="#317302"/>
<circle cx="5" cy="5" r="5" transform="matrix(0 -1 -1 0 130 70)" fill="#317302"/>
<circle cx="5" cy="5" r="5" transform="matrix(0 -1 -1 0 130 100)" fill="#317302"/>
<circle cx="5" cy="5" r="5" transform="matrix(0 -1 -1 0 130 130)" fill="#317302"/>
</svg>
