<svg width="93" height="44" viewBox="0 0 93 44" fill="none" xmlns="http://www.w3.org/2000/svg">
<path d="M9.02328 43V0.819999H17.0633V43H9.02328ZM0.743281 7.9V0.819999H16.4633V7.9H0.743281ZM36.3345 43.6C33.4945 43.6 30.8945 43.1 28.5345 42.1C26.1745 41.06 24.1945 39.58 22.5945 37.66L27.9945 32.32C28.7945 33.52 29.9345 34.48 31.4145 35.2C32.8945 35.92 34.4945 36.28 36.2145 36.28C37.8145 36.28 39.1945 36 40.3545 35.44C41.5145 34.84 42.4145 34.02 43.0545 32.98C43.7345 31.9 44.0745 30.66 44.0745 29.26C44.0745 27.78 43.7345 26.52 43.0545 25.48C42.4145 24.44 41.4745 23.64 40.2345 23.08C38.9945 22.52 37.5145 22.24 35.7945 22.24C35.0345 22.24 34.2545 22.3 33.4545 22.42C32.6545 22.5 31.9745 22.64 31.4145 22.84L35.0145 18.28C36.0145 17.96 36.9945 17.7 37.9545 17.5C38.9545 17.26 39.8745 17.14 40.7145 17.14C42.8745 17.14 44.8145 17.66 46.5345 18.7C48.2945 19.7 49.6745 21.14 50.6745 23.02C51.7145 24.86 52.2345 27.04 52.2345 29.56C52.2345 32.36 51.5745 34.82 50.2545 36.94C48.9345 39.02 47.0745 40.66 44.6745 41.86C42.3145 43.02 39.5345 43.6 36.3345 43.6ZM31.4145 22.84V18.16L42.2145 5.62L51.5745 5.5L40.4145 18.28L31.4145 22.84ZM24.9345 7.9V0.819999H51.5745V5.5L44.9145 7.9H24.9345ZM65.2428 17.56C63.6828 17.56 62.2228 17.18 60.8628 16.42C59.5428 15.62 58.5028 14.56 57.7428 13.24C56.9828 11.92 56.6028 10.46 56.6028 8.86C56.6028 7.22 56.9828 5.76 57.7428 4.48C58.5028 3.2 59.5428 2.18 60.8628 1.42C62.1828 0.619997 63.6428 0.219996 65.2428 0.219996C66.8828 0.219996 68.3628 0.619997 69.6828 1.42C71.0428 2.18 72.1028 3.2 72.8628 4.48C73.6228 5.76 74.0028 7.22 74.0028 8.86C74.0028 10.46 73.6028 11.92 72.8028 13.24C72.0428 14.56 71.0028 15.62 69.6828 16.42C68.4028 17.18 66.9228 17.56 65.2428 17.56ZM65.2428 11.86C66.1628 11.86 66.8828 11.58 67.4028 11.02C67.9228 10.46 68.1828 9.74 68.1828 8.86C68.1828 7.98 67.9028 7.26 67.3428 6.7C66.8228 6.14 66.1228 5.86 65.2428 5.86C64.4028 5.86 63.7228 6.14 63.2028 6.7C62.6828 7.26 62.4228 7.98 62.4228 8.86C62.4228 9.74 62.6828 10.46 63.2028 11.02C63.7228 11.58 64.4028 11.86 65.2428 11.86ZM83.7228 43.6C82.1228 43.6 80.6628 43.22 79.3428 42.46C78.0228 41.66 76.9628 40.62 76.1628 39.34C75.4028 38.02 75.0228 36.54 75.0228 34.9C75.0228 33.26 75.4028 31.8 76.1628 30.52C76.9628 29.24 78.0028 28.22 79.2828 27.46C80.6028 26.66 82.0828 26.26 83.7228 26.26C85.3628 26.26 86.8428 26.66 88.1628 27.46C89.4828 28.22 90.5228 29.24 91.2828 30.52C92.0828 31.8 92.4828 33.26 92.4828 34.9C92.4828 36.54 92.0828 38.02 91.2828 39.34C90.5228 40.62 89.4828 41.66 88.1628 42.46C86.8828 43.22 85.4028 43.6 83.7228 43.6ZM83.7228 37.9C84.6028 37.9 85.3228 37.62 85.8828 37.06C86.4428 36.5 86.7228 35.78 86.7228 34.9C86.7228 34.06 86.4228 33.36 85.8228 32.8C85.2628 32.24 84.5628 31.96 83.7228 31.96C82.8828 31.96 82.1828 32.24 81.6228 32.8C81.1028 33.36 80.8428 34.06 80.8428 34.9C80.8428 35.78 81.1028 36.5 81.6228 37.06C82.1828 37.62 82.8828 37.9 83.7228 37.9ZM57.7428 43L83.9028 0.819999H91.3428L65.1828 43H57.7428Z" fill="url(#paint0_linear_138_281)"/>
<defs>
<linearGradient id="paint0_linear_138_281" x1="-7" y1="6.59237e-06" x2="104.49" y2="12.9439" gradientUnits="userSpaceOnUse">
<stop stop-color="#55C704"/>
<stop offset="0.772184" stop-color="#317302"/>
</linearGradient>
</defs>
</svg>
