<svg width="96" height="44" viewBox="0 0 96 44" fill="none" xmlns="http://www.w3.org/2000/svg">
<path d="M8.41195 43V0.819999H16.452V43H8.41195ZM0.131953 7.9V0.819999H15.852V7.9H0.131953ZM22.2832 28.12L36.6832 0.819999H45.6832L30.9232 28.12H22.2832ZM22.2832 32.92V28.12L25.2832 25.78H55.5232V32.92H22.2832ZM42.2032 43V16.12H50.2432V43H42.2032ZM67.8541 17.56C66.2941 17.56 64.8341 17.18 63.4741 16.42C62.1541 15.62 61.1141 14.56 60.3541 13.24C59.5941 11.92 59.2141 10.46 59.2141 8.86C59.2141 7.22 59.5941 5.76 60.3541 4.48C61.1141 3.2 62.1541 2.18 63.4741 1.42C64.7941 0.619997 66.2541 0.219996 67.8541 0.219996C69.4941 0.219996 70.9741 0.619997 72.2941 1.42C73.6541 2.18 74.7141 3.2 75.4741 4.48C76.2341 5.76 76.6141 7.22 76.6141 8.86C76.6141 10.46 76.2141 11.92 75.4141 13.24C74.6541 14.56 73.6141 15.62 72.2941 16.42C71.0141 17.18 69.5341 17.56 67.8541 17.56ZM67.8541 11.86C68.7741 11.86 69.4941 11.58 70.0141 11.02C70.5341 10.46 70.7941 9.74 70.7941 8.86C70.7941 7.98 70.5141 7.26 69.9541 6.7C69.4341 6.14 68.7341 5.86 67.8541 5.86C67.0141 5.86 66.3341 6.14 65.8141 6.7C65.2941 7.26 65.0341 7.98 65.0341 8.86C65.0341 9.74 65.2941 10.46 65.8141 11.02C66.3341 11.58 67.0141 11.86 67.8541 11.86ZM86.3341 43.6C84.7341 43.6 83.2741 43.22 81.9541 42.46C80.6341 41.66 79.5741 40.62 78.7741 39.34C78.0141 38.02 77.6341 36.54 77.6341 34.9C77.6341 33.26 78.0141 31.8 78.7741 30.52C79.5741 29.24 80.6141 28.22 81.8941 27.46C83.2141 26.66 84.6941 26.26 86.3341 26.26C87.9741 26.26 89.4541 26.66 90.7741 27.46C92.0941 28.22 93.1341 29.24 93.8941 30.52C94.6941 31.8 95.0941 33.26 95.0941 34.9C95.0941 36.54 94.6941 38.02 93.8941 39.34C93.1341 40.62 92.0941 41.66 90.7741 42.46C89.4941 43.22 88.0141 43.6 86.3341 43.6ZM86.3341 37.9C87.2141 37.9 87.9341 37.62 88.4941 37.06C89.0541 36.5 89.3341 35.78 89.3341 34.9C89.3341 34.06 89.0341 33.36 88.4341 32.8C87.8741 32.24 87.1741 31.96 86.3341 31.96C85.4941 31.96 84.7941 32.24 84.2341 32.8C83.7141 33.36 83.4541 34.06 83.4541 34.9C83.4541 35.78 83.7141 36.5 84.2341 37.06C84.7941 37.62 85.4941 37.9 86.3341 37.9ZM60.3541 43L86.5141 0.819999H93.9541L67.7941 43H60.3541Z" fill="url(#paint0_linear_138_282)"/>
<defs>
<linearGradient id="paint0_linear_138_282" x1="-6" y1="6.59237e-06" x2="105.49" y2="12.9439" gradientUnits="userSpaceOnUse">
<stop stop-color="#55C704"/>
<stop offset="0.772184" stop-color="#317302"/>
</linearGradient>
</defs>
</svg>
