<svg width="193" height="44" viewBox="0 0 193 44" fill="none" xmlns="http://www.w3.org/2000/svg">
<path d="M14.5279 43.6C11.6879 43.6 9.08789 43.1 6.72789 42.1C4.36789 41.06 2.38789 39.58 0.787891 37.66L6.18789 32.32C6.98789 33.52 8.12789 34.48 9.60789 35.2C11.0879 35.92 12.6879 36.28 14.4079 36.28C16.0079 36.28 17.3879 36 18.5479 35.44C19.7079 34.84 20.6079 34.02 21.2479 32.98C21.9279 31.9 22.2679 30.66 22.2679 29.26C22.2679 27.78 21.9279 26.52 21.2479 25.48C20.6079 24.44 19.6679 23.64 18.4279 23.08C17.1879 22.52 15.7079 22.24 13.9879 22.24C13.2279 22.24 12.4479 22.3 11.6479 22.42C10.8479 22.5 10.1679 22.64 9.60789 22.84L13.2079 18.28C14.2079 17.96 15.1879 17.7 16.1479 17.5C17.1479 17.26 18.0679 17.14 18.9079 17.14C21.0679 17.14 23.0079 17.66 24.7279 18.7C26.4879 19.7 27.8679 21.14 28.8679 23.02C29.9079 24.86 30.4279 27.04 30.4279 29.56C30.4279 32.36 29.7679 34.82 28.4479 36.94C27.1279 39.02 25.2679 40.66 22.8679 41.86C20.5079 43.02 17.7279 43.6 14.5279 43.6ZM9.60789 22.84V18.16L20.4079 5.62L29.7679 5.5L18.6079 18.28L9.60789 22.84ZM3.12789 7.9V0.819999H29.7679V5.5L23.1079 7.9H3.12789ZM52.4962 43.6C49.1762 43.6 46.1762 42.7 43.4962 40.9C40.8162 39.1 38.6762 36.56 37.0762 33.28C35.5162 30 34.7362 26.18 34.7362 21.82C34.7362 17.46 35.5162 13.66 37.0762 10.42C38.6362 7.18 40.7362 4.66 43.3762 2.86C46.0562 1.06 49.0362 0.159997 52.3162 0.159997C55.6762 0.159997 58.6762 1.06 61.3162 2.86C63.9962 4.66 66.1162 7.2 67.6762 10.48C69.2362 13.72 70.0162 17.54 70.0162 21.94C70.0162 26.3 69.2362 30.12 67.6762 33.4C66.1162 36.64 64.0162 39.16 61.3762 40.96C58.7362 42.72 55.7762 43.6 52.4962 43.6ZM52.3762 36.22C54.2962 36.22 55.9562 35.68 57.3562 34.6C58.7562 33.52 59.8362 31.92 60.5962 29.8C61.3962 27.68 61.7962 25.04 61.7962 21.88C61.7962 18.72 61.3962 16.08 60.5962 13.96C59.8362 11.84 58.7362 10.26 57.2962 9.22C55.8962 8.14 54.2362 7.6 52.3162 7.6C50.4362 7.6 48.7962 8.14 47.3962 9.22C45.9962 10.26 44.8962 11.84 44.0962 13.96C43.3362 16.04 42.9562 18.66 42.9562 21.82C42.9562 25.02 43.3362 27.68 44.0962 29.8C44.8962 31.92 45.9962 33.52 47.3962 34.6C48.7962 35.68 50.4562 36.22 52.3762 36.22ZM92.1055 43.6C88.7855 43.6 85.7855 42.7 83.1055 40.9C80.4255 39.1 78.2855 36.56 76.6855 33.28C75.1255 30 74.3455 26.18 74.3455 21.82C74.3455 17.46 75.1255 13.66 76.6855 10.42C78.2455 7.18 80.3455 4.66 82.9855 2.86C85.6655 1.06 88.6455 0.159997 91.9255 0.159997C95.2855 0.159997 98.2855 1.06 100.926 2.86C103.606 4.66 105.726 7.2 107.286 10.48C108.846 13.72 109.626 17.54 109.626 21.94C109.626 26.3 108.846 30.12 107.286 33.4C105.726 36.64 103.626 39.16 100.986 40.96C98.3455 42.72 95.3855 43.6 92.1055 43.6ZM91.9855 36.22C93.9055 36.22 95.5655 35.68 96.9655 34.6C98.3655 33.52 99.4455 31.92 100.206 29.8C101.006 27.68 101.406 25.04 101.406 21.88C101.406 18.72 101.006 16.08 100.206 13.96C99.4455 11.84 98.3455 10.26 96.9055 9.22C95.5055 8.14 93.8455 7.6 91.9255 7.6C90.0455 7.6 88.4055 8.14 87.0055 9.22C85.6055 10.26 84.5055 11.84 83.7055 13.96C82.9455 16.04 82.5655 18.66 82.5655 21.82C82.5655 25.02 82.9455 27.68 83.7055 29.8C84.5055 31.92 85.6055 33.52 87.0055 34.6C88.4055 35.68 90.0655 36.22 91.9855 36.22ZM131.715 43.6C128.395 43.6 125.395 42.7 122.715 40.9C120.035 39.1 117.895 36.56 116.295 33.28C114.735 30 113.955 26.18 113.955 21.82C113.955 17.46 114.735 13.66 116.295 10.42C117.855 7.18 119.955 4.66 122.595 2.86C125.275 1.06 128.255 0.159997 131.535 0.159997C134.895 0.159997 137.895 1.06 140.535 2.86C143.215 4.66 145.335 7.2 146.895 10.48C148.455 13.72 149.235 17.54 149.235 21.94C149.235 26.3 148.455 30.12 146.895 33.4C145.335 36.64 143.235 39.16 140.595 40.96C137.955 42.72 134.995 43.6 131.715 43.6ZM131.595 36.22C133.515 36.22 135.175 35.68 136.575 34.6C137.975 33.52 139.055 31.92 139.815 29.8C140.615 27.68 141.015 25.04 141.015 21.88C141.015 18.72 140.615 16.08 139.815 13.96C139.055 11.84 137.955 10.26 136.515 9.22C135.115 8.14 133.455 7.6 131.535 7.6C129.655 7.6 128.015 8.14 126.615 9.22C125.215 10.26 124.115 11.84 123.315 13.96C122.555 16.04 122.175 18.66 122.175 21.82C122.175 25.02 122.555 27.68 123.315 29.8C124.115 31.92 125.215 33.52 126.615 34.6C128.015 35.68 129.675 36.22 131.595 36.22ZM177.024 43.6C173.944 43.6 171.124 43.06 168.564 41.98C166.004 40.86 163.784 39.32 161.904 37.36C160.024 35.36 158.564 33.04 157.524 30.4C156.524 27.76 156.024 24.92 156.024 21.88C156.024 18.84 156.524 16 157.524 13.36C158.524 10.72 159.964 8.42 161.844 6.46C163.724 4.5 165.944 2.96 168.504 1.84C171.064 0.719997 173.884 0.159997 176.964 0.159997C180.164 0.159997 182.964 0.719997 185.364 1.84C187.804 2.92 190.004 4.42 191.964 6.34L186.444 11.86C185.284 10.5 183.904 9.46 182.304 8.74C180.744 8.02 178.884 7.66 176.724 7.66C174.244 7.66 172.064 8.26 170.184 9.46C168.304 10.62 166.844 12.28 165.804 14.44C164.764 16.56 164.244 19.04 164.244 21.88C164.244 24.72 164.764 27.22 165.804 29.38C166.844 31.5 168.324 33.16 170.244 34.36C172.164 35.56 174.444 36.16 177.084 36.16C179.164 36.16 180.984 35.8 182.544 35.08C184.144 34.32 185.524 33.26 186.684 31.9L192.204 37.42C190.244 39.38 188.024 40.9 185.544 41.98C183.064 43.06 180.224 43.6 177.024 43.6ZM152.004 19.72V14.14H180.864L179.244 19.72H152.004ZM152.004 29.74V24.22H178.524L176.964 29.74H152.004Z" fill="url(#paint0_linear_138_280)"/>
<defs>
<linearGradient id="paint0_linear_138_280" x1="-3" y1="6.59237e-06" x2="197" y2="43" gradientUnits="userSpaceOnUse">
<stop stop-color="#55C704"/>
<stop offset="0.772184" stop-color="#317302"/>
</linearGradient>
</defs>
</svg>
