<svg width="70" height="44" viewBox="0 0 70 44" fill="none" xmlns="http://www.w3.org/2000/svg">
<path d="M14.9124 43.6C11.9124 43.6 9.31242 43.08 7.11242 42.04C4.95242 41 3.25242 39.54 2.01242 37.66C0.812422 35.78 0.212422 33.66 0.212422 31.3C0.212422 29.34 0.592422 27.56 1.35242 25.96C2.11242 24.36 3.19242 23.02 4.59242 21.94C6.03242 20.82 7.71242 20.04 9.63242 19.6L9.45242 21.58C7.85242 21.18 6.49242 20.48 5.37242 19.48C4.25242 18.48 3.41242 17.3 2.85242 15.94C2.29242 14.54 2.01242 13.1 2.01242 11.62C2.01242 9.34 2.55242 7.34 3.63242 5.62C4.75242 3.9 6.27242 2.56 8.19242 1.6C10.1524 0.639997 12.3924 0.159997 14.9124 0.159997C17.4324 0.159997 19.6524 0.639997 21.5724 1.6C23.4924 2.56 24.9924 3.9 26.0724 5.62C27.1924 7.34 27.7524 9.34 27.7524 11.62C27.7524 13.1 27.4724 14.54 26.9124 15.94C26.3524 17.3 25.5124 18.48 24.3924 19.48C23.3124 20.48 21.9524 21.18 20.3124 21.58L20.1324 19.6C22.0924 20.04 23.7724 20.82 25.1724 21.94C26.5724 23.02 27.6524 24.36 28.4124 25.96C29.1724 27.56 29.5524 29.34 29.5524 31.3C29.5524 33.66 28.9524 35.78 27.7524 37.66C26.5524 39.54 24.8524 41 22.6524 42.04C20.4524 43.08 17.8724 43.6 14.9124 43.6ZM14.9124 36.46C16.2324 36.46 17.4124 36.2 18.4524 35.68C19.4924 35.12 20.2924 34.36 20.8524 33.4C21.4524 32.44 21.7524 31.36 21.7524 30.16C21.7524 28.92 21.4524 27.84 20.8524 26.92C20.2924 25.96 19.4924 25.22 18.4524 24.7C17.4124 24.14 16.2324 23.86 14.9124 23.86C13.5524 23.86 12.3524 24.14 11.3124 24.7C10.3124 25.22 9.51242 25.96 8.91242 26.92C8.31242 27.84 8.01242 28.92 8.01242 30.16C8.01242 31.36 8.31242 32.44 8.91242 33.4C9.51242 34.36 10.3124 35.12 11.3124 35.68C12.3524 36.2 13.5524 36.46 14.9124 36.46ZM14.9124 17.68C16.4724 17.68 17.7524 17.18 18.7524 16.18C19.7524 15.18 20.2524 13.9 20.2524 12.34C20.2524 10.74 19.7524 9.44 18.7524 8.44C17.7524 7.44 16.4724 6.94 14.9124 6.94C13.3524 6.94 12.0524 7.44 11.0124 8.44C10.0124 9.44 9.51242 10.72 9.51242 12.28C9.51242 13.88 10.0124 15.18 11.0124 16.18C12.0524 17.18 13.3524 17.68 14.9124 17.68ZM42.3737 17.56C40.8137 17.56 39.3537 17.18 37.9937 16.42C36.6737 15.62 35.6337 14.56 34.8737 13.24C34.1137 11.92 33.7337 10.46 33.7337 8.86C33.7337 7.22 34.1137 5.76 34.8737 4.48C35.6337 3.2 36.6737 2.18 37.9937 1.42C39.3137 0.619997 40.7737 0.219996 42.3737 0.219996C44.0137 0.219996 45.4937 0.619997 46.8137 1.42C48.1737 2.18 49.2337 3.2 49.9937 4.48C50.7537 5.76 51.1337 7.22 51.1337 8.86C51.1337 10.46 50.7337 11.92 49.9337 13.24C49.1737 14.56 48.1337 15.62 46.8137 16.42C45.5337 17.18 44.0537 17.56 42.3737 17.56ZM42.3737 11.86C43.2937 11.86 44.0137 11.58 44.5337 11.02C45.0537 10.46 45.3137 9.74 45.3137 8.86C45.3137 7.98 45.0337 7.26 44.4737 6.7C43.9537 6.14 43.2537 5.86 42.3737 5.86C41.5337 5.86 40.8537 6.14 40.3337 6.7C39.8137 7.26 39.5537 7.98 39.5537 8.86C39.5537 9.74 39.8137 10.46 40.3337 11.02C40.8537 11.58 41.5337 11.86 42.3737 11.86ZM60.8537 43.6C59.2537 43.6 57.7937 43.22 56.4737 42.46C55.1537 41.66 54.0937 40.62 53.2937 39.34C52.5337 38.02 52.1537 36.54 52.1537 34.9C52.1537 33.26 52.5337 31.8 53.2937 30.52C54.0937 29.24 55.1337 28.22 56.4137 27.46C57.7337 26.66 59.2137 26.26 60.8537 26.26C62.4937 26.26 63.9737 26.66 65.2937 27.46C66.6137 28.22 67.6537 29.24 68.4137 30.52C69.2137 31.8 69.6137 33.26 69.6137 34.9C69.6137 36.54 69.2137 38.02 68.4137 39.34C67.6537 40.62 66.6137 41.66 65.2937 42.46C64.0137 43.22 62.5337 43.6 60.8537 43.6ZM60.8537 37.9C61.7337 37.9 62.4537 37.62 63.0137 37.06C63.5737 36.5 63.8537 35.78 63.8537 34.9C63.8537 34.06 63.5537 33.36 62.9537 32.8C62.3937 32.24 61.6937 31.96 60.8537 31.96C60.0137 31.96 59.3137 32.24 58.7537 32.8C58.2337 33.36 57.9737 34.06 57.9737 34.9C57.9737 35.78 58.2337 36.5 58.7537 37.06C59.3137 37.62 60.0137 37.9 60.8537 37.9ZM34.8737 43L61.0337 0.819999H68.4737L42.3137 43H34.8737Z" fill="url(#paint0_linear_149_287)"/>
<defs>
<linearGradient id="paint0_linear_149_287" x1="-6" y1="6.59237e-06" x2="79.129" y2="7.50412" gradientUnits="userSpaceOnUse">
<stop stop-color="#55C704"/>
<stop offset="0.772184" stop-color="#317302"/>
</linearGradient>
</defs>
</svg>
