<svg width="110" height="44" viewBox="0 0 110 44" fill="none" xmlns="http://www.w3.org/2000/svg">
<path d="M15.1077 43.6C12.1077 43.6 9.50773 43.08 7.30773 42.04C5.14773 41 3.44773 39.54 2.20773 37.66C1.00773 35.78 0.407734 33.66 0.407734 31.3C0.407734 29.34 0.787734 27.56 1.54773 25.96C2.30773 24.36 3.38773 23.02 4.78773 21.94C6.22773 20.82 7.90773 20.04 9.82774 19.6L9.64773 21.58C8.04773 21.18 6.68773 20.48 5.56773 19.48C4.44773 18.48 3.60773 17.3 3.04773 15.94C2.48773 14.54 2.20773 13.1 2.20773 11.62C2.20773 9.34 2.74773 7.34 3.82773 5.62C4.94773 3.9 6.46773 2.56 8.38773 1.6C10.3477 0.639997 12.5877 0.159997 15.1077 0.159997C17.6277 0.159997 19.8477 0.639997 21.7677 1.6C23.6877 2.56 25.1877 3.9 26.2677 5.62C27.3877 7.34 27.9477 9.34 27.9477 11.62C27.9477 13.1 27.6677 14.54 27.1077 15.94C26.5477 17.3 25.7077 18.48 24.5877 19.48C23.5077 20.48 22.1477 21.18 20.5077 21.58L20.3277 19.6C22.2877 20.04 23.9677 20.82 25.3677 21.94C26.7677 23.02 27.8477 24.36 28.6077 25.96C29.3677 27.56 29.7477 29.34 29.7477 31.3C29.7477 33.66 29.1477 35.78 27.9477 37.66C26.7477 39.54 25.0477 41 22.8477 42.04C20.6477 43.08 18.0677 43.6 15.1077 43.6ZM15.1077 36.46C16.4277 36.46 17.6077 36.2 18.6477 35.68C19.6877 35.12 20.4877 34.36 21.0477 33.4C21.6477 32.44 21.9477 31.36 21.9477 30.16C21.9477 28.92 21.6477 27.84 21.0477 26.92C20.4877 25.96 19.6877 25.22 18.6477 24.7C17.6077 24.14 16.4277 23.86 15.1077 23.86C13.7477 23.86 12.5477 24.14 11.5077 24.7C10.5077 25.22 9.70773 25.96 9.10773 26.92C8.50773 27.84 8.20773 28.92 8.20773 30.16C8.20773 31.36 8.50773 32.44 9.10773 33.4C9.70773 34.36 10.5077 35.12 11.5077 35.68C12.5477 36.2 13.7477 36.46 15.1077 36.46ZM15.1077 17.68C16.6677 17.68 17.9477 17.18 18.9477 16.18C19.9477 15.18 20.4477 13.9 20.4477 12.34C20.4477 10.74 19.9477 9.44 18.9477 8.44C17.9477 7.44 16.6677 6.94 15.1077 6.94C13.5477 6.94 12.2477 7.44 11.2077 8.44C10.2077 9.44 9.70773 10.72 9.70773 12.28C9.70773 13.88 10.2077 15.18 11.2077 16.18C12.2477 17.18 13.5477 17.68 15.1077 17.68ZM51.629 43.6C48.309 43.6 45.309 42.7 42.629 40.9C39.949 39.1 37.809 36.56 36.209 33.28C34.649 30 33.869 26.18 33.869 21.82C33.869 17.46 34.649 13.66 36.209 10.42C37.769 7.18 39.869 4.66 42.509 2.86C45.189 1.06 48.169 0.159997 51.449 0.159997C54.809 0.159997 57.809 1.06 60.449 2.86C63.129 4.66 65.249 7.2 66.809 10.48C68.369 13.72 69.149 17.54 69.149 21.94C69.149 26.3 68.369 30.12 66.809 33.4C65.249 36.64 63.149 39.16 60.509 40.96C57.869 42.72 54.909 43.6 51.629 43.6ZM51.509 36.22C53.429 36.22 55.089 35.68 56.489 34.6C57.889 33.52 58.969 31.92 59.729 29.8C60.529 27.68 60.929 25.04 60.929 21.88C60.929 18.72 60.529 16.08 59.729 13.96C58.969 11.84 57.869 10.26 56.429 9.22C55.029 8.14 53.369 7.6 51.449 7.6C49.569 7.6 47.929 8.14 46.529 9.22C45.129 10.26 44.029 11.84 43.229 13.96C42.469 16.04 42.089 18.66 42.089 21.82C42.089 25.02 42.469 27.68 43.229 29.8C44.029 31.92 45.129 33.52 46.529 34.6C47.929 35.68 49.589 36.22 51.509 36.22ZM82.1784 17.56C80.6184 17.56 79.1584 17.18 77.7984 16.42C76.4784 15.62 75.4384 14.56 74.6784 13.24C73.9184 11.92 73.5384 10.46 73.5384 8.86C73.5384 7.22 73.9184 5.76 74.6784 4.48C75.4384 3.2 76.4784 2.18 77.7984 1.42C79.1184 0.619997 80.5784 0.219996 82.1784 0.219996C83.8184 0.219996 85.2984 0.619997 86.6184 1.42C87.9784 2.18 89.0384 3.2 89.7984 4.48C90.5584 5.76 90.9384 7.22 90.9384 8.86C90.9384 10.46 90.5384 11.92 89.7384 13.24C88.9784 14.56 87.9384 15.62 86.6184 16.42C85.3384 17.18 83.8584 17.56 82.1784 17.56ZM82.1784 11.86C83.0984 11.86 83.8184 11.58 84.3384 11.02C84.8584 10.46 85.1184 9.74 85.1184 8.86C85.1184 7.98 84.8384 7.26 84.2784 6.7C83.7584 6.14 83.0584 5.86 82.1784 5.86C81.3384 5.86 80.6584 6.14 80.1384 6.7C79.6184 7.26 79.3584 7.98 79.3584 8.86C79.3584 9.74 79.6184 10.46 80.1384 11.02C80.6584 11.58 81.3384 11.86 82.1784 11.86ZM100.658 43.6C99.0584 43.6 97.5984 43.22 96.2784 42.46C94.9584 41.66 93.8984 40.62 93.0984 39.34C92.3384 38.02 91.9584 36.54 91.9584 34.9C91.9584 33.26 92.3384 31.8 93.0984 30.52C93.8984 29.24 94.9384 28.22 96.2184 27.46C97.5384 26.66 99.0184 26.26 100.658 26.26C102.298 26.26 103.778 26.66 105.098 27.46C106.418 28.22 107.458 29.24 108.218 30.52C109.018 31.8 109.418 33.26 109.418 34.9C109.418 36.54 109.018 38.02 108.218 39.34C107.458 40.62 106.418 41.66 105.098 42.46C103.818 43.22 102.338 43.6 100.658 43.6ZM100.658 37.9C101.538 37.9 102.258 37.62 102.818 37.06C103.378 36.5 103.658 35.78 103.658 34.9C103.658 34.06 103.358 33.36 102.758 32.8C102.198 32.24 101.498 31.96 100.658 31.96C99.8184 31.96 99.1184 32.24 98.5584 32.8C98.0384 33.36 97.7784 34.06 97.7784 34.9C97.7784 35.78 98.0384 36.5 98.5584 37.06C99.1184 37.62 99.8184 37.9 100.658 37.9ZM74.6784 43L100.838 0.819999H108.278L82.1184 43H74.6784Z" fill="url(#paint0_linear_138_280)"/>
<defs>
<linearGradient id="paint0_linear_138_280" x1="-3" y1="6.59237e-06" x2="116.504" y2="14.9021" gradientUnits="userSpaceOnUse">
<stop stop-color="#55C704"/>
<stop offset="0.772184" stop-color="#317302"/>
</linearGradient>
</defs>
</svg>
