<svg width="345" height="45" viewBox="0 0 345 45" fill="none" xmlns="http://www.w3.org/2000/svg">
<path d="M6.12023 44L18.9602 26.12L21.9002 25.22C21.4202 26.14 20.8602 26.96 20.2202 27.68C19.6202 28.36 18.8402 28.88 17.8802 29.24C16.9202 29.6 15.6602 29.78 14.1002 29.78C11.6202 29.78 9.34023 29.2 7.26023 28.04C5.22023 26.84 3.58023 25.2 2.34023 23.12C1.10023 21.04 0.480234 18.66 0.480234 15.98C0.480234 13.26 1.16023 10.78 2.52023 8.54C3.88023 6.26 5.72023 4.46 8.04023 3.14C10.3602 1.82 12.9402 1.16 15.7802 1.16C18.6602 1.16 21.2402 1.82 23.5202 3.14C25.8402 4.46 27.6602 6.22 28.9802 8.42C30.3402 10.62 31.0202 13.08 31.0202 15.8C31.0202 19.52 29.7202 23.28 27.1202 27.08L15.4202 44H6.12023ZM15.7802 23.54C17.1802 23.54 18.4202 23.22 19.5002 22.58C20.5802 21.94 21.4202 21.06 22.0202 19.94C22.6602 18.78 22.9802 17.5 22.9802 16.1C22.9802 14.62 22.6602 13.32 22.0202 12.2C21.4202 11.08 20.5802 10.2 19.5002 9.56C18.4202 8.88 17.1802 8.54 15.7802 8.54C14.3802 8.54 13.1202 8.88 12.0002 9.56C10.9202 10.2 10.0602 11.08 9.42023 12.2C8.82023 13.32 8.52023 14.62 8.52023 16.1C8.52023 17.54 8.82023 18.82 9.42023 19.94C10.0602 21.06 10.9402 21.94 12.0602 22.58C13.1802 23.22 14.4202 23.54 15.7802 23.54ZM52.7618 44.6C49.4418 44.6 46.4418 43.7 43.7618 41.9C41.0818 40.1 38.9418 37.56 37.3418 34.28C35.7818 31 35.0018 27.18 35.0018 22.82C35.0018 18.46 35.7818 14.66 37.3418 11.42C38.9018 8.18 41.0018 5.66 43.6418 3.86C46.3218 2.06 49.3018 1.16 52.5818 1.16C55.9418 1.16 58.9418 2.06 61.5818 3.86C64.2618 5.66 66.3818 8.2 67.9418 11.48C69.5018 14.72 70.2818 18.54 70.2818 22.94C70.2818 27.3 69.5018 31.12 67.9418 34.4C66.3818 37.64 64.2818 40.16 61.6418 41.96C59.0018 43.72 56.0418 44.6 52.7618 44.6ZM52.6418 37.22C54.5618 37.22 56.2218 36.68 57.6218 35.6C59.0218 34.52 60.1018 32.92 60.8618 30.8C61.6618 28.68 62.0618 26.04 62.0618 22.88C62.0618 19.72 61.6618 17.08 60.8618 14.96C60.1018 12.84 59.0018 11.26 57.5618 10.22C56.1618 9.14 54.5018 8.6 52.5818 8.6C50.7018 8.6 49.0618 9.14 47.6618 10.22C46.2618 11.26 45.1618 12.84 44.3618 14.96C43.6018 17.04 43.2218 19.66 43.2218 22.82C43.2218 26.02 43.6018 28.68 44.3618 30.8C45.1618 32.92 46.2618 34.52 47.6618 35.6C49.0618 36.68 50.7218 37.22 52.6418 37.22ZM92.3712 44.6C89.0512 44.6 86.0512 43.7 83.3712 41.9C80.6912 40.1 78.5512 37.56 76.9512 34.28C75.3912 31 74.6112 27.18 74.6112 22.82C74.6112 18.46 75.3912 14.66 76.9512 11.42C78.5112 8.18 80.6112 5.66 83.2512 3.86C85.9312 2.06 88.9112 1.16 92.1912 1.16C95.5512 1.16 98.5512 2.06 101.191 3.86C103.871 5.66 105.991 8.2 107.551 11.48C109.111 14.72 109.891 18.54 109.891 22.94C109.891 27.3 109.111 31.12 107.551 34.4C105.991 37.64 103.891 40.16 101.251 41.96C98.6112 43.72 95.6512 44.6 92.3712 44.6ZM92.2512 37.22C94.1712 37.22 95.8312 36.68 97.2312 35.6C98.6312 34.52 99.7112 32.92 100.471 30.8C101.271 28.68 101.671 26.04 101.671 22.88C101.671 19.72 101.271 17.08 100.471 14.96C99.7112 12.84 98.6112 11.26 97.1712 10.22C95.7712 9.14 94.1112 8.6 92.1912 8.6C90.3112 8.6 88.6712 9.14 87.2712 10.22C85.8712 11.26 84.7712 12.84 83.9712 14.96C83.2112 17.04 82.8312 19.66 82.8312 22.82C82.8312 26.02 83.2112 28.68 83.9712 30.8C84.7712 32.92 85.8712 34.52 87.2712 35.6C88.6712 36.68 90.3312 37.22 92.2512 37.22ZM128.099 44V1.82H133.859L150.959 29.18H147.659L164.699 1.82H170.459V44H162.359V15.8L163.919 16.28L152.039 35.36H146.519L134.639 16.28L136.259 15.8V44H128.099ZM178.236 44V15.02H186.156V44H178.236ZM182.196 10.34C180.916 10.34 179.856 9.92 179.016 9.08C178.176 8.2 177.756 7.12 177.756 5.84C177.756 4.6 178.176 3.54 179.016 2.66C179.856 1.78 180.916 1.34 182.196 1.34C183.516 1.34 184.576 1.78 185.376 2.66C186.216 3.54 186.636 4.6 186.636 5.84C186.636 7.12 186.216 8.2 185.376 9.08C184.576 9.92 183.516 10.34 182.196 10.34ZM193.119 44V0.619997H200.979V44H193.119ZM207.943 44V0.619997H215.803V44H207.943ZM236.387 44.6C233.467 44.6 230.827 43.94 228.467 42.62C226.147 41.26 224.287 39.44 222.887 37.16C221.527 34.84 220.847 32.26 220.847 29.42C220.847 26.58 221.527 24.04 222.887 21.8C224.247 19.52 226.107 17.72 228.467 16.4C230.827 15.04 233.447 14.36 236.327 14.36C239.287 14.36 241.927 15.04 244.247 16.4C246.607 17.72 248.467 19.52 249.827 21.8C251.187 24.04 251.867 26.58 251.867 29.42C251.867 32.26 251.187 34.84 249.827 37.16C248.467 39.44 246.607 41.26 244.247 42.62C241.927 43.94 239.307 44.6 236.387 44.6ZM236.327 37.28C237.807 37.28 239.107 36.96 240.227 36.32C241.387 35.64 242.267 34.72 242.867 33.56C243.507 32.36 243.827 31 243.827 29.48C243.827 27.96 243.507 26.62 242.867 25.46C242.227 24.3 241.347 23.4 240.227 22.76C239.107 22.08 237.807 21.74 236.327 21.74C234.887 21.74 233.607 22.08 232.487 22.76C231.367 23.4 230.487 24.3 229.847 25.46C229.207 26.62 228.887 27.96 228.887 29.48C228.887 31 229.207 32.36 229.847 33.56C230.487 34.72 231.367 35.64 232.487 36.32C233.607 36.96 234.887 37.28 236.327 37.28ZM276.427 44V27.38C276.427 25.66 275.887 24.26 274.807 23.18C273.727 22.1 272.327 21.56 270.607 21.56C269.487 21.56 268.487 21.8 267.607 22.28C266.727 22.76 266.027 23.44 265.507 24.32C265.027 25.2 264.787 26.22 264.787 27.38L261.727 25.82C261.727 23.54 262.207 21.56 263.167 19.88C264.167 18.16 265.527 16.82 267.247 15.86C269.007 14.9 270.987 14.42 273.187 14.42C275.307 14.42 277.207 14.96 278.887 16.04C280.567 17.08 281.887 18.46 282.847 20.18C283.807 21.86 284.287 23.68 284.287 25.64V44H276.427ZM256.927 44V15.02H264.787V44H256.927ZM304.479 44.6C301.439 44.6 298.739 43.96 296.379 42.68C294.019 41.36 292.139 39.56 290.739 37.28C289.379 35 288.699 32.4 288.699 29.48C288.699 26.6 289.359 24.04 290.679 21.8C292.039 19.52 293.879 17.72 296.199 16.4C298.519 15.04 301.099 14.36 303.939 14.36C306.739 14.36 309.199 15 311.319 16.28C313.479 17.52 315.159 19.24 316.359 21.44C317.599 23.6 318.219 26.06 318.219 28.82C318.219 29.34 318.179 29.88 318.099 30.44C318.059 30.96 317.959 31.56 317.799 32.24L293.439 32.3V26.42L314.139 26.36L310.959 28.82C310.879 27.1 310.559 25.66 309.999 24.5C309.479 23.34 308.699 22.46 307.659 21.86C306.659 21.22 305.419 20.9 303.939 20.9C302.379 20.9 301.019 21.26 299.859 21.98C298.699 22.66 297.799 23.64 297.159 24.92C296.559 26.16 296.259 27.64 296.259 29.36C296.259 31.12 296.579 32.66 297.219 33.98C297.899 35.26 298.859 36.26 300.099 36.98C301.339 37.66 302.779 38 304.419 38C305.899 38 307.239 37.76 308.439 37.28C309.639 36.76 310.679 36 311.559 35L316.179 39.62C314.779 41.26 313.059 42.5 311.019 43.34C309.019 44.18 306.839 44.6 304.479 44.6ZM333.04 44.66C331.4 44.66 329.78 44.44 328.18 44C326.62 43.56 325.18 42.96 323.86 42.2C322.54 41.4 321.4 40.44 320.44 39.32L325.12 34.58C326.12 35.7 327.28 36.54 328.6 37.1C329.92 37.66 331.38 37.94 332.98 37.94C334.26 37.94 335.22 37.76 335.86 37.4C336.54 37.04 336.88 36.5 336.88 35.78C336.88 34.98 336.52 34.36 335.8 33.92C335.12 33.48 334.22 33.12 333.1 32.84C331.98 32.52 330.8 32.18 329.56 31.82C328.36 31.42 327.2 30.92 326.08 30.32C324.96 29.68 324.04 28.82 323.32 27.74C322.64 26.62 322.3 25.18 322.3 23.42C322.3 21.58 322.74 19.98 323.62 18.62C324.54 17.26 325.84 16.2 327.52 15.44C329.2 14.68 331.18 14.3 333.46 14.3C335.86 14.3 338.02 14.72 339.94 15.56C341.9 16.4 343.52 17.66 344.8 19.34L340.06 24.08C339.18 23 338.18 22.22 337.06 21.74C335.98 21.26 334.8 21.02 333.52 21.02C332.36 21.02 331.46 21.2 330.82 21.56C330.22 21.92 329.92 22.42 329.92 23.06C329.92 23.78 330.26 24.34 330.94 24.74C331.66 25.14 332.58 25.5 333.7 25.82C334.82 26.1 335.98 26.44 337.18 26.84C338.42 27.2 339.58 27.72 340.66 28.4C341.78 29.08 342.68 29.98 343.36 31.1C344.08 32.22 344.44 33.66 344.44 35.42C344.44 38.26 343.42 40.52 341.38 42.2C339.34 43.84 336.56 44.66 333.04 44.66Z" fill="url(#paint0_linear_149_288)"/>
<defs>
<linearGradient id="paint0_linear_149_288" x1="-11" y1="1.00001" x2="321.25" y2="132.081" gradientUnits="userSpaceOnUse">
<stop stop-color="#55C704"/>
<stop offset="0.772184" stop-color="#317302"/>
</linearGradient>
</defs>
</svg>
