<svg width="159" height="44" viewBox="0 0 159 44" fill="none" xmlns="http://www.w3.org/2000/svg">
<path d="M5.73156 43L18.5716 25.12L21.5116 24.22C21.0316 25.14 20.4716 25.96 19.8316 26.68C19.2316 27.36 18.4516 27.88 17.4916 28.24C16.5316 28.6 15.2716 28.78 13.7116 28.78C11.2316 28.78 8.95156 28.2 6.87156 27.04C4.83156 25.84 3.19156 24.2 1.95156 22.12C0.711563 20.04 0.0915626 17.66 0.0915626 14.98C0.0915626 12.26 0.771563 9.78 2.13156 7.54C3.49156 5.26 5.33156 3.46 7.65156 2.14C9.97156 0.819997 12.5516 0.159997 15.3916 0.159997C18.2716 0.159997 20.8516 0.819997 23.1316 2.14C25.4516 3.46 27.2716 5.22 28.5916 7.42C29.9516 9.62 30.6316 12.08 30.6316 14.8C30.6316 18.52 29.3316 22.28 26.7316 26.08L15.0316 43H5.73156ZM15.3916 22.54C16.7916 22.54 18.0316 22.22 19.1116 21.58C20.1916 20.94 21.0316 20.06 21.6316 18.94C22.2716 17.78 22.5916 16.5 22.5916 15.1C22.5916 13.62 22.2716 12.32 21.6316 11.2C21.0316 10.08 20.1916 9.2 19.1116 8.56C18.0316 7.88 16.7916 7.54 15.3916 7.54C13.9916 7.54 12.7316 7.88 11.6116 8.56C10.5316 9.2 9.67156 10.08 9.03156 11.2C8.43156 12.32 8.13156 13.62 8.13156 15.1C8.13156 16.54 8.43156 17.82 9.03156 18.94C9.67156 20.06 10.5516 20.94 11.6716 21.58C12.7916 22.22 14.0316 22.54 15.3916 22.54ZM52.3731 43.6C49.0531 43.6 46.0531 42.7 43.3731 40.9C40.6931 39.1 38.5531 36.56 36.9531 33.28C35.3931 30 34.6131 26.18 34.6131 21.82C34.6131 17.46 35.3931 13.66 36.9531 10.42C38.5131 7.18 40.6131 4.66 43.2531 2.86C45.9331 1.06 48.9131 0.159997 52.1931 0.159997C55.5531 0.159997 58.5531 1.06 61.1931 2.86C63.8731 4.66 65.9931 7.2 67.5531 10.48C69.1131 13.72 69.8931 17.54 69.8931 21.94C69.8931 26.3 69.1131 30.12 67.5531 33.4C65.9931 36.64 63.8931 39.16 61.2531 40.96C58.6131 42.72 55.6531 43.6 52.3731 43.6ZM52.2531 36.22C54.1731 36.22 55.8331 35.68 57.2331 34.6C58.6331 33.52 59.7131 31.92 60.4731 29.8C61.2731 27.68 61.6731 25.04 61.6731 21.88C61.6731 18.72 61.2731 16.08 60.4731 13.96C59.7131 11.84 58.6131 10.26 57.1731 9.22C55.7731 8.14 54.1131 7.6 52.1931 7.6C50.3131 7.6 48.6731 8.14 47.2731 9.22C45.8731 10.26 44.7731 11.84 43.9731 13.96C43.2131 16.04 42.8331 18.66 42.8331 21.82C42.8331 25.02 43.2131 27.68 43.9731 29.8C44.7731 31.92 45.8731 33.52 47.2731 34.6C48.6731 35.68 50.3331 36.22 52.2531 36.22ZM91.9825 43.6C88.6625 43.6 85.6625 42.7 82.9825 40.9C80.3025 39.1 78.1625 36.56 76.5625 33.28C75.0025 30 74.2225 26.18 74.2225 21.82C74.2225 17.46 75.0025 13.66 76.5625 10.42C78.1225 7.18 80.2225 4.66 82.8625 2.86C85.5425 1.06 88.5225 0.159997 91.8025 0.159997C95.1625 0.159997 98.1625 1.06 100.803 2.86C103.483 4.66 105.603 7.2 107.163 10.48C108.723 13.72 109.503 17.54 109.503 21.94C109.503 26.3 108.723 30.12 107.163 33.4C105.603 36.64 103.503 39.16 100.863 40.96C98.2225 42.72 95.2625 43.6 91.9825 43.6ZM91.8625 36.22C93.7825 36.22 95.4425 35.68 96.8425 34.6C98.2425 33.52 99.3225 31.92 100.083 29.8C100.883 27.68 101.283 25.04 101.283 21.88C101.283 18.72 100.883 16.08 100.083 13.96C99.3225 11.84 98.2225 10.26 96.7825 9.22C95.3825 8.14 93.7225 7.6 91.8025 7.6C89.9225 7.6 88.2825 8.14 86.8825 9.22C85.4825 10.26 84.3825 11.84 83.5825 13.96C82.8225 16.04 82.4425 18.66 82.4425 21.82C82.4425 25.02 82.8225 27.68 83.5825 29.8C84.3825 31.92 85.4825 33.52 86.8825 34.6C88.2825 35.68 89.9425 36.22 91.8625 36.22ZM115.992 43V0.819999H121.752L138.852 28.18H135.552L152.592 0.819999H158.352V43H150.252V14.8L151.812 15.28L139.932 34.36H134.412L122.532 15.28L124.152 14.8V43H115.992Z" fill="url(#paint0_linear_149_288)"/>
<defs>
<linearGradient id="paint0_linear_149_288" x1="-3" y1="6.59237e-06" x2="166.264" y2="30.3872" gradientUnits="userSpaceOnUse">
<stop stop-color="#55C704"/>
<stop offset="0.772184" stop-color="#317302"/>
</linearGradient>
</defs>
</svg>
