<svg width="5304" height="901" viewBox="0 0 5304 901" fill="none" xmlns="http://www.w3.org/2000/svg">
<g clip-path="url(#clip0_190_1324)">
<path d="M764 701V17H895V701H764ZM651 333V218H1008V333H651ZM1271.95 711C1227.95 711 1188.29 700 1152.95 678C1117.62 656 1089.95 626 1069.95 588C1049.95 550 1039.95 507.333 1039.95 460C1039.95 412 1049.95 369 1069.95 331C1089.95 293 1117.62 263 1152.95 241C1188.29 219 1227.95 208 1271.95 208C1306.62 208 1337.62 215 1364.95 229C1392.29 243 1413.95 262.667 1429.95 288C1446.62 312.667 1455.62 340.667 1456.95 372V546C1455.62 578 1446.62 606.333 1429.95 631C1413.95 655.667 1392.29 675.333 1364.95 690C1337.62 704 1306.62 711 1271.95 711ZM1295.95 590C1332.62 590 1362.29 578 1384.95 554C1407.62 529.333 1418.95 497.667 1418.95 459C1418.95 433.667 1413.62 411.333 1402.95 392C1392.95 372 1378.62 356.667 1359.95 346C1341.95 334.667 1320.62 329 1295.95 329C1271.95 329 1250.62 334.667 1231.95 346C1213.95 356.667 1199.62 372 1188.95 392C1178.95 411.333 1173.95 433.667 1173.95 459C1173.95 485 1178.95 508 1188.95 528C1199.62 547.333 1213.95 562.667 1231.95 574C1250.62 584.667 1271.95 590 1295.95 590ZM1411.95 701V571L1432.95 453L1411.95 337V218H1541.95V701H1411.95ZM1657.84 701V218H1788.84V701H1657.84ZM1788.84 434L1737.84 400C1743.84 340.667 1761.18 294 1789.84 260C1818.51 225.333 1859.84 208 1913.84 208C1937.18 208 1958.18 212 1976.84 220C1995.51 227.333 2012.51 239.667 2027.84 257L1945.84 351C1938.51 343 1929.51 337 1918.84 333C1908.84 329 1897.18 327 1883.84 327C1855.84 327 1832.84 336 1814.84 354C1797.51 371.333 1788.84 398 1788.84 434ZM2287.19 711C2238.52 711 2194.52 700 2155.19 678C2116.52 655.333 2085.52 625 2062.19 587C2039.52 548.333 2028.19 505.333 2028.19 458C2028.19 410.667 2039.52 368.333 2062.19 331C2084.85 293 2115.85 263 2155.19 241C2194.52 218.333 2238.19 207 2286.19 207C2335.52 207 2379.52 218.333 2418.19 241C2457.52 263 2488.52 293 2511.19 331C2533.85 368.333 2545.19 410.667 2545.19 458C2545.19 505.333 2533.85 548.333 2511.19 587C2488.52 625 2457.52 655.333 2418.19 678C2379.52 700 2335.85 711 2287.19 711ZM2286.19 589C2310.85 589 2332.52 583.667 2351.19 573C2370.52 561.667 2385.19 546.333 2395.19 527C2405.85 507 2411.19 484.333 2411.19 459C2411.19 433.667 2405.85 411.333 2395.19 392C2384.52 372.667 2369.85 357.667 2351.19 347C2332.52 335.667 2310.85 330 2286.19 330C2262.19 330 2240.85 335.667 2222.19 347C2203.52 357.667 2188.85 372.667 2178.19 392C2167.52 411.333 2162.19 433.667 2162.19 459C2162.19 484.333 2167.52 507 2178.19 527C2188.85 546.333 2203.52 561.667 2222.19 573C2240.85 583.667 2262.19 589 2286.19 589ZM2954.52 701V424C2954.52 395.333 2945.52 372 2927.52 354C2909.52 336 2886.19 327 2857.52 327C2838.86 327 2822.19 331 2807.52 339C2792.86 347 2781.19 358.333 2772.52 373C2764.52 387.667 2760.52 404.667 2760.52 424L2709.52 398C2709.52 360 2717.52 327 2733.52 299C2750.19 270.333 2772.86 248 2801.52 232C2830.86 216 2863.86 208 2900.52 208C2935.86 208 2967.52 217 2995.52 235C3023.52 252.333 3045.52 275.333 3061.52 304C3077.52 332 3085.52 362.333 3085.52 395V701H2954.52ZM2629.52 701V218H2760.52V701H2629.52ZM3393.05 915C3341.71 915 3296.38 905.667 3257.05 887C3217.71 869 3186.38 843.333 3163.05 810L3246.05 727C3264.71 749 3285.38 765.667 3308.05 777C3331.38 789 3359.38 795 3392.05 795C3432.71 795 3464.71 784.667 3488.05 764C3512.05 743.333 3524.05 714.667 3524.05 678V557L3546.05 451L3525.05 345V218H3655.05V676C3655.05 724 3643.71 765.667 3621.05 801C3599.05 837 3568.38 865 3529.05 885C3489.71 905 3444.38 915 3393.05 915ZM3387.05 688C3343.71 688 3304.71 677.667 3270.05 657C3235.38 635.667 3208.05 606.667 3188.05 570C3168.71 533.333 3159.05 492.333 3159.05 447C3159.05 401.667 3168.71 361 3188.05 325C3208.05 289 3235.38 260.667 3270.05 240C3304.71 218.667 3343.71 208 3387.05 208C3423.05 208 3454.71 215 3482.05 229C3510.05 243 3532.05 262.333 3548.05 287C3564.05 311 3572.71 339.333 3574.05 372V524C3572.71 556 3563.71 584.667 3547.05 610C3531.05 634.667 3509.05 654 3481.05 668C3453.71 681.333 3422.38 688 3387.05 688ZM3413.05 569C3437.05 569 3457.71 564 3475.05 554C3493.05 543.333 3507.05 529 3517.05 511C3527.05 492.333 3532.05 471.333 3532.05 448C3532.05 424 3527.05 403 3517.05 385C3507.05 367 3493.05 353 3475.05 343C3457.71 332.333 3437.05 327 3413.05 327C3389.05 327 3368.05 332.333 3350.05 343C3332.05 353 3318.05 367.333 3308.05 386C3298.05 404 3293.05 424.667 3293.05 448C3293.05 470.667 3298.05 491.333 3308.05 510C3318.05 528 3332.05 542.333 3350.05 553C3368.05 563.667 3389.05 569 3413.05 569ZM4001.15 711C3950.48 711 3905.48 700.333 3866.15 679C3826.82 657 3795.48 627 3772.15 589C3749.48 551 3738.15 507.667 3738.15 459C3738.15 411 3749.15 368.333 3771.15 331C3793.82 293 3824.48 263 3863.15 241C3901.82 218.333 3944.82 207 3992.15 207C4038.82 207 4079.82 217.667 4115.15 239C4151.15 259.667 4179.15 288.333 4199.15 325C4219.82 361 4230.15 402 4230.15 448C4230.15 456.667 4229.48 465.667 4228.15 475C4227.48 483.667 4225.82 493.667 4223.15 505L3817.15 506V408L4162.15 407L4109.15 448C4107.82 419.333 4102.48 395.333 4093.15 376C4084.48 356.667 4071.48 342 4054.15 332C4037.48 321.333 4016.82 316 3992.15 316C3966.15 316 3943.48 322 3924.15 334C3904.82 345.333 3889.82 361.667 3879.15 383C3869.15 403.667 3864.15 428.333 3864.15 457C3864.15 486.333 3869.48 512 3880.15 534C3891.48 555.333 3907.48 572 3928.15 584C3948.82 595.333 3972.82 601 4000.15 601C4024.82 601 4047.15 597 4067.15 589C4087.15 580.333 4104.48 567.667 4119.15 551L4196.15 628C4172.82 655.333 4144.15 676 4110.15 690C4076.82 704 4040.48 711 4001.15 711ZM4539.16 711C4489.83 711 4445.5 700 4406.16 678C4366.83 656 4335.83 626 4313.16 588C4290.5 550 4279.16 507.333 4279.16 460C4279.16 412 4290.5 369 4313.16 331C4335.83 293 4366.83 263 4406.16 241C4446.16 218.333 4490.5 207 4539.16 207C4577.16 207 4612.16 214 4644.16 228C4676.16 242 4703.83 262 4727.16 288L4643.16 373C4630.5 359 4615.16 348.333 4597.16 341C4579.83 333.667 4560.5 330 4539.16 330C4515.16 330 4493.5 335.667 4474.16 347C4455.5 357.667 4440.5 372.667 4429.16 392C4418.5 410.667 4413.16 433 4413.16 459C4413.16 484.333 4418.5 507 4429.16 527C4440.5 546.333 4455.5 561.667 4474.16 573C4493.5 583.667 4515.16 589 4539.16 589C4561.16 589 4580.83 585.333 4598.16 578C4616.16 570 4631.5 558.667 4644.16 544L4729.16 629C4704.5 655.667 4676.16 676 4644.16 690C4612.16 704 4577.16 711 4539.16 711ZM5019.61 711C4970.94 711 4926.94 700 4887.61 678C4848.94 655.333 4817.94 625 4794.61 587C4771.94 548.333 4760.61 505.333 4760.61 458C4760.61 410.667 4771.94 368.333 4794.61 331C4817.28 293 4848.28 263 4887.61 241C4926.94 218.333 4970.61 207 5018.61 207C5067.94 207 5111.94 218.333 5150.61 241C5189.94 263 5220.94 293 5243.61 331C5266.28 368.333 5277.61 410.667 5277.61 458C5277.61 505.333 5266.28 548.333 5243.61 587C5220.94 625 5189.94 655.333 5150.61 678C5111.94 700 5068.28 711 5019.61 711ZM5018.61 589C5043.28 589 5064.94 583.667 5083.61 573C5102.94 561.667 5117.61 546.333 5127.61 527C5138.28 507 5143.61 484.333 5143.61 459C5143.61 433.667 5138.28 411.333 5127.61 392C5116.94 372.667 5102.28 357.667 5083.61 347C5064.94 335.667 5043.28 330 5018.61 330C4994.61 330 4973.28 335.667 4954.61 347C4935.94 357.667 4921.28 372.667 4910.61 392C4899.94 411.333 4894.61 433.667 4894.61 459C4894.61 484.333 4899.94 507 4910.61 527C4921.28 546.333 4935.94 561.667 4954.61 573C4973.28 583.667 4994.61 589 5018.61 589Z" fill="#317302"/>
<g clip-path="url(#clip1_190_1324)">
<mask id="mask0_190_1324" style="mask-type:luminance" maskUnits="userSpaceOnUse" x="12" y="23" width="492" height="729">
<path d="M504 23H12V752H504V23Z" fill="white"/>
</mask>
<g mask="url(#mask0_190_1324)">
<path d="M391.653 153.243C365.673 178.986 342.028 192.816 320.829 200.196C303.374 206.272 287.195 208.111 272.107 208.339C272.657 193.13 274.494 177.021 280.537 159.667C287.844 138.687 301.502 115.335 327.45 89.6221C372.929 44.5553 420.297 37.8913 448.27 35.3555C450.084 65.1657 438.752 106.572 391.653 153.243Z" stroke="#317302" stroke-width="25"/>
<path d="M204.853 140.778C219.922 155.902 227.592 169.761 231.432 182.154C234.272 191.319 235.124 200.011 235.074 208.339C226.599 208.26 217.866 207.423 208.667 204.61C196.331 200.837 182.574 193.32 167.54 178.23C142.956 153.553 139.116 127.018 138.086 109.595C155.56 108.576 179.021 114.848 204.853 140.778Z" stroke="#317302" stroke-width="25"/>
<path fill-rule="evenodd" clip-rule="evenodd" d="M258 232.168C122.138 232.168 12 342.668 12 478.976C12 560.581 51.4738 632.934 112.31 677.863C67.2002 637.579 38.7867 578.883 38.7867 513.528V482.815C38.7867 361.349 136.932 262.882 258 262.882C379.068 262.882 477.213 361.349 477.213 482.815V513.528C477.213 578.883 448.8 637.579 403.69 677.863C464.526 632.934 504 560.581 504 478.976C504 342.668 393.862 232.168 258 232.168Z" fill="#E45302"/>
<path d="M88.7106 474.874C88.7106 470 84.763 466.048 79.8934 466.048C75.0238 466.048 71.0762 470 71.0762 474.874C71.0762 479.749 75.0238 483.7 79.8934 483.7C84.763 483.7 88.7106 479.749 88.7106 474.874Z" fill="#E45302"/>
<path d="M432.58 474.874C432.58 470 428.632 466.048 423.763 466.048C418.893 466.048 414.945 470 414.945 474.874C414.945 479.749 418.893 483.7 423.763 483.7C428.632 483.7 432.58 479.749 432.58 474.874Z" fill="#E45302"/>
<path d="M258 300.126C253.131 300.126 249.184 304.077 249.184 308.951C249.184 313.826 253.131 317.777 258 317.777C262.87 317.777 266.817 313.826 266.817 308.951C266.817 304.077 262.87 300.126 258 300.126Z" fill="#E45302"/>
<path d="M349.229 641.98C333.632 628.485 322.751 618.009 322.491 588.157C322.231 558.304 332.459 547.644 348.287 533.874C366.229 547.348 374.764 557.845 375.025 587.698C375.285 617.55 364.581 627.274 349.229 641.98Z" fill="#252525"/>
<path d="M166.243 644.85C181.323 631.021 190.899 619.844 190.644 589.856C190.389 559.867 180.167 549.34 164.392 535.787C147.01 549.636 138.811 560.329 139.066 590.318C139.321 620.306 150.921 630.349 166.243 644.85Z" fill="#252525"/>
<path fill-rule="evenodd" clip-rule="evenodd" d="M196.409 708.296L167.428 648.923L167.859 649.313C185.032 634.272 196.992 622.621 196.706 590.008C196.421 557.395 184.785 545.95 166.826 531.214C166.483 531.474 166.146 531.733 165.811 531.99L230.16 403.311C240.604 382.43 269.669 382.178 280.475 402.873L346.707 529.724C329.06 544.732 317.665 556.395 317.949 588.953C318.231 621.249 330.161 632.784 347.325 647.32L319.54 706.857C278.855 714.241 237.181 714.71 196.409 708.296Z" fill="#317302"/>
<path d="M100.005 644.278C95.7148 640.411 99.3481 629.372 108.12 619.62C116.892 609.869 127.48 605.098 131.771 608.965C136.061 612.831 132.427 623.871 123.655 633.622C114.883 643.374 104.295 648.145 100.005 644.278Z" fill="#317302"/>
<path d="M70.4704 652.064C67.7024 656.863 56.2549 655.434 44.9018 648.873C33.5486 642.312 26.5891 633.103 29.3571 628.304C32.1251 623.506 43.5725 624.934 54.9257 631.495C66.2789 638.056 73.2385 647.265 70.4704 652.064Z" fill="#317302"/>
<path d="M86.6714 634.22C81.4528 636.069 73.6749 627.541 69.2988 615.172C64.9228 602.802 65.6057 591.276 70.8243 589.426C76.0428 587.577 83.8207 596.104 88.1968 608.474C92.5728 620.843 91.8898 632.37 86.6714 634.22Z" fill="#317302"/>
<path d="M414.802 644.278C419.093 640.411 415.458 629.372 406.687 619.62C397.915 609.869 387.327 605.098 383.036 608.965C378.746 612.831 382.38 623.871 391.152 633.622C399.924 643.374 410.512 648.144 414.802 644.278Z" fill="#317302"/>
<path d="M444.338 652.064C447.105 656.863 458.553 655.434 469.906 648.873C481.26 642.312 488.219 633.103 485.451 628.304C482.683 623.506 471.235 624.934 459.882 631.495C448.529 638.056 441.569 647.265 444.338 652.064Z" fill="#317302"/>
<path d="M428.135 634.22C433.353 636.069 441.131 627.541 445.507 615.172C449.883 602.802 449.2 591.276 443.982 589.426C438.763 587.577 430.985 596.104 426.609 608.474C422.233 620.843 422.916 632.37 428.135 634.22Z" fill="#317302"/>
</g>
</g>
</g>
<defs>
<clipPath id="clip0_190_1324">
<rect width="5304" height="901" fill="white"/>
</clipPath>
<clipPath id="clip1_190_1324">
<rect width="492" height="729" fill="white" transform="translate(12 23)"/>
</clipPath>
</defs>
</svg>
