<svg width="126" height="25" viewBox="0 0 126 25" fill="none" xmlns="http://www.w3.org/2000/svg">
<path d="M3.483 19V0.532H7.02V19H3.483ZM0.432 9.064V5.959H10.071V9.064H0.432ZM17.1977 19.27C16.0097 19.27 14.9387 18.973 13.9847 18.379C13.0307 17.785 12.2837 16.975 11.7437 15.949C11.2037 14.923 10.9337 13.771 10.9337 12.493C10.9337 11.197 11.2037 10.036 11.7437 9.01C12.2837 7.984 13.0307 7.174 13.9847 6.58C14.9387 5.986 16.0097 5.689 17.1977 5.689C18.1337 5.689 18.9707 5.878 19.7087 6.256C20.4467 6.634 21.0317 7.165 21.4637 7.849C21.9137 8.515 22.1567 9.271 22.1927 10.117V14.815C22.1567 15.679 21.9137 16.444 21.4637 17.11C21.0317 17.776 20.4467 18.307 19.7087 18.703C18.9707 19.081 18.1337 19.27 17.1977 19.27ZM17.8457 16.003C18.8357 16.003 19.6367 15.679 20.2487 15.031C20.8607 14.365 21.1667 13.51 21.1667 12.466C21.1667 11.782 21.0227 11.179 20.7347 10.657C20.4647 10.117 20.0777 9.703 19.5737 9.415C19.0877 9.109 18.5117 8.956 17.8457 8.956C17.1977 8.956 16.6217 9.109 16.1177 9.415C15.6317 9.703 15.2447 10.117 14.9567 10.657C14.6867 11.179 14.5517 11.782 14.5517 12.466C14.5517 13.168 14.6867 13.789 14.9567 14.329C15.2447 14.851 15.6317 15.265 16.1177 15.571C16.6217 15.859 17.1977 16.003 17.8457 16.003ZM20.9777 19V15.49L21.5447 12.304L20.9777 9.172V5.959H24.4877V19H20.9777ZM27.6168 19V5.959H31.1538V19H27.6168ZM31.1538 11.791L29.7768 10.873C29.9388 9.271 30.4068 8.011 31.1808 7.093C31.9548 6.157 33.0708 5.689 34.5288 5.689C35.1588 5.689 35.7258 5.797 36.2298 6.013C36.7338 6.211 37.1928 6.544 37.6068 7.012L35.3928 9.55C35.1948 9.334 34.9518 9.172 34.6638 9.064C34.3938 8.956 34.0788 8.902 33.7188 8.902C32.9628 8.902 32.3418 9.145 31.8558 9.631C31.3878 10.099 31.1538 10.819 31.1538 11.791ZM44.6091 19.27C43.2951 19.27 42.1071 18.973 41.0451 18.379C40.0011 17.767 39.1641 16.948 38.5341 15.922C37.9221 14.878 37.6161 13.717 37.6161 12.439C37.6161 11.161 37.9221 10.018 38.5341 9.01C39.1461 7.984 39.9831 7.174 41.0451 6.58C42.1071 5.968 43.2861 5.662 44.5821 5.662C45.9141 5.662 47.1021 5.968 48.1461 6.58C49.2081 7.174 50.0451 7.984 50.6571 9.01C51.2691 10.018 51.5751 11.161 51.5751 12.439C51.5751 13.717 51.2691 14.878 50.6571 15.922C50.0451 16.948 49.2081 17.767 48.1461 18.379C47.1021 18.973 45.9231 19.27 44.6091 19.27ZM44.5821 15.976C45.2481 15.976 45.8331 15.832 46.3371 15.544C46.8591 15.238 47.2551 14.824 47.5251 14.302C47.8131 13.762 47.9571 13.15 47.9571 12.466C47.9571 11.782 47.8131 11.179 47.5251 10.657C47.2371 10.135 46.8411 9.73 46.3371 9.442C45.8331 9.136 45.2481 8.983 44.5821 8.983C43.9341 8.983 43.3581 9.136 42.8541 9.442C42.3501 9.73 41.9541 10.135 41.6661 10.657C41.3781 11.179 41.2341 11.782 41.2341 12.466C41.2341 13.15 41.3781 13.762 41.6661 14.302C41.9541 14.824 42.3501 15.238 42.8541 15.544C43.3581 15.832 43.9341 15.976 44.5821 15.976ZM62.6271 19V11.521C62.6271 10.747 62.3841 10.117 61.8981 9.631C61.4121 9.145 60.7821 8.902 60.0081 8.902C59.5041 8.902 59.0541 9.01 58.6581 9.226C58.2621 9.442 57.9471 9.748 57.7131 10.144C57.4971 10.54 57.3891 10.999 57.3891 11.521L56.0121 10.819C56.0121 9.793 56.2281 8.902 56.6601 8.146C57.1101 7.372 57.7221 6.769 58.4961 6.337C59.2881 5.905 60.1791 5.689 61.1691 5.689C62.1231 5.689 62.9781 5.932 63.7341 6.418C64.4901 6.886 65.0841 7.507 65.5161 8.281C65.9481 9.037 66.1641 9.856 66.1641 10.738V19H62.6271ZM53.8521 19V5.959H57.3891V19H53.8521ZM74.4673 24.778C73.0813 24.778 71.8573 24.526 70.7953 24.022C69.7333 23.536 68.8873 22.843 68.2573 21.943L70.4983 19.702C71.0023 20.296 71.5603 20.746 72.1723 21.052C72.8023 21.376 73.5583 21.538 74.4403 21.538C75.5383 21.538 76.4023 21.259 77.0323 20.701C77.6803 20.143 78.0043 19.369 78.0043 18.379V15.112L78.5983 12.25L78.0313 9.388V5.959H81.5413V18.325C81.5413 19.621 81.2353 20.746 80.6233 21.7C80.0293 22.672 79.2013 23.428 78.1393 23.968C77.0773 24.508 75.8533 24.778 74.4673 24.778ZM74.3053 18.649C73.1353 18.649 72.0823 18.37 71.1463 17.812C70.2103 17.236 69.4723 16.453 68.9323 15.463C68.4103 14.473 68.1493 13.366 68.1493 12.142C68.1493 10.918 68.4103 9.82 68.9323 8.848C69.4723 7.876 70.2103 7.111 71.1463 6.553C72.0823 5.977 73.1353 5.689 74.3053 5.689C75.2773 5.689 76.1323 5.878 76.8703 6.256C77.6263 6.634 78.2203 7.156 78.6523 7.822C79.0843 8.47 79.3183 9.235 79.3543 10.117V14.221C79.3183 15.085 79.0753 15.859 78.6253 16.543C78.1933 17.209 77.5993 17.731 76.8433 18.109C76.1053 18.469 75.2593 18.649 74.3053 18.649ZM75.0073 15.436C75.6553 15.436 76.2133 15.301 76.6813 15.031C77.1673 14.743 77.5453 14.356 77.8153 13.87C78.0853 13.366 78.2203 12.799 78.2203 12.169C78.2203 11.521 78.0853 10.954 77.8153 10.468C77.5453 9.982 77.1673 9.604 76.6813 9.334C76.2133 9.046 75.6553 8.902 75.0073 8.902C74.3593 8.902 73.7923 9.046 73.3063 9.334C72.8203 9.604 72.4423 9.991 72.1723 10.495C71.9023 10.981 71.7673 11.539 71.7673 12.169C71.7673 12.781 71.9023 13.339 72.1723 13.843C72.4423 14.329 72.8203 14.716 73.3063 15.004C73.7923 15.292 74.3593 15.436 75.0073 15.436ZM90.886 19.27C89.518 19.27 88.303 18.982 87.241 18.406C86.179 17.812 85.333 17.002 84.703 15.976C84.091 14.95 83.785 13.78 83.785 12.466C83.785 11.17 84.082 10.018 84.676 9.01C85.288 7.984 86.116 7.174 87.16 6.58C88.204 5.968 89.365 5.662 90.643 5.662C91.903 5.662 93.01 5.95 93.964 6.526C94.936 7.084 95.692 7.858 96.232 8.848C96.79 9.82 97.069 10.927 97.069 12.169C97.069 12.403 97.051 12.646 97.015 12.898C96.997 13.132 96.952 13.402 96.88 13.708L85.918 13.735V11.089L95.233 11.062L93.802 12.169C93.766 11.395 93.622 10.747 93.37 10.225C93.136 9.703 92.785 9.307 92.317 9.037C91.867 8.749 91.309 8.605 90.643 8.605C89.941 8.605 89.329 8.767 88.807 9.091C88.285 9.397 87.88 9.838 87.592 10.414C87.322 10.972 87.187 11.638 87.187 12.412C87.187 13.204 87.331 13.897 87.619 14.491C87.925 15.067 88.357 15.517 88.915 15.841C89.473 16.147 90.121 16.3 90.859 16.3C91.525 16.3 92.128 16.192 92.668 15.976C93.208 15.742 93.676 15.4 94.072 14.95L96.151 17.029C95.521 17.767 94.747 18.325 93.829 18.703C92.929 19.081 91.948 19.27 90.886 19.27ZM105.412 19.27C104.08 19.27 102.883 18.973 101.821 18.379C100.759 17.785 99.9224 16.975 99.3104 15.949C98.6984 14.923 98.3924 13.771 98.3924 12.493C98.3924 11.197 98.6984 10.036 99.3104 9.01C99.9224 7.984 100.759 7.174 101.821 6.58C102.901 5.968 104.098 5.662 105.412 5.662C106.438 5.662 107.383 5.851 108.247 6.229C109.111 6.607 109.858 7.147 110.488 7.849L108.22 10.144C107.878 9.766 107.464 9.478 106.978 9.28C106.51 9.082 105.988 8.983 105.412 8.983C104.764 8.983 104.179 9.136 103.657 9.442C103.153 9.73 102.748 10.135 102.442 10.657C102.154 11.161 102.01 11.764 102.01 12.466C102.01 13.15 102.154 13.762 102.442 14.302C102.748 14.824 103.153 15.238 103.657 15.544C104.179 15.832 104.764 15.976 105.412 15.976C106.006 15.976 106.537 15.877 107.005 15.679C107.491 15.463 107.905 15.157 108.247 14.761L110.542 17.056C109.876 17.776 109.111 18.325 108.247 18.703C107.383 19.081 106.438 19.27 105.412 19.27ZM118.384 19.27C117.07 19.27 115.882 18.973 114.82 18.379C113.776 17.767 112.939 16.948 112.309 15.922C111.697 14.878 111.391 13.717 111.391 12.439C111.391 11.161 111.697 10.018 112.309 9.01C112.921 7.984 113.758 7.174 114.82 6.58C115.882 5.968 117.061 5.662 118.357 5.662C119.689 5.662 120.877 5.968 121.921 6.58C122.983 7.174 123.82 7.984 124.432 9.01C125.044 10.018 125.35 11.161 125.35 12.439C125.35 13.717 125.044 14.878 124.432 15.922C123.82 16.948 122.983 17.767 121.921 18.379C120.877 18.973 119.698 19.27 118.384 19.27ZM118.357 15.976C119.023 15.976 119.608 15.832 120.112 15.544C120.634 15.238 121.03 14.824 121.3 14.302C121.588 13.762 121.732 13.15 121.732 12.466C121.732 11.782 121.588 11.179 121.3 10.657C121.012 10.135 120.616 9.73 120.112 9.442C119.608 9.136 119.023 8.983 118.357 8.983C117.709 8.983 117.133 9.136 116.629 9.442C116.125 9.73 115.729 10.135 115.441 10.657C115.153 11.179 115.009 11.782 115.009 12.466C115.009 13.15 115.153 13.762 115.441 14.302C115.729 14.824 116.125 15.238 116.629 15.544C117.133 15.832 117.709 15.976 118.357 15.976Z" fill="#317302"/>
</svg>
