<svg width="5304" height="901" viewBox="0 0 5304 901" fill="none" xmlns="http://www.w3.org/2000/svg">
<g clip-path="url(#clip0_156_880)">
<path d="M764 701V17H895V701H764ZM651 333V218H1008V333H651ZM1271.95 711C1227.95 711 1188.29 700 1152.95 678C1117.62 656 1089.95 626 1069.95 588C1049.95 550 1039.95 507.333 1039.95 460C1039.95 412 1049.95 369 1069.95 331C1089.95 293 1117.62 263 1152.95 241C1188.29 219 1227.95 208 1271.95 208C1306.62 208 1337.62 215 1364.95 229C1392.29 243 1413.95 262.667 1429.95 288C1446.62 312.667 1455.62 340.667 1456.95 372V546C1455.62 578 1446.62 606.333 1429.95 631C1413.95 655.667 1392.29 675.333 1364.95 690C1337.62 704 1306.62 711 1271.95 711ZM1295.95 590C1332.62 590 1362.29 578 1384.95 554C1407.62 529.333 1418.95 497.667 1418.95 459C1418.95 433.667 1413.62 411.333 1402.95 392C1392.95 372 1378.62 356.667 1359.95 346C1341.95 334.667 1320.62 329 1295.95 329C1271.95 329 1250.62 334.667 1231.95 346C1213.95 356.667 1199.62 372 1188.95 392C1178.95 411.333 1173.95 433.667 1173.95 459C1173.95 485 1178.95 508 1188.95 528C1199.62 547.333 1213.95 562.667 1231.95 574C1250.62 584.667 1271.95 590 1295.95 590ZM1411.95 701V571L1432.95 453L1411.95 337V218H1541.95V701H1411.95ZM1657.84 701V218H1788.84V701H1657.84ZM1788.84 434L1737.84 400C1743.84 340.667 1761.18 294 1789.84 260C1818.51 225.333 1859.84 208 1913.84 208C1937.18 208 1958.18 212 1976.84 220C1995.51 227.333 2012.51 239.667 2027.84 257L1945.84 351C1938.51 343 1929.51 337 1918.84 333C1908.84 329 1897.18 327 1883.84 327C1855.84 327 1832.84 336 1814.84 354C1797.51 371.333 1788.84 398 1788.84 434ZM2287.19 711C2238.52 711 2194.52 700 2155.19 678C2116.52 655.333 2085.52 625 2062.19 587C2039.52 548.333 2028.19 505.333 2028.19 458C2028.19 410.667 2039.52 368.333 2062.19 331C2084.85 293 2115.85 263 2155.19 241C2194.52 218.333 2238.19 207 2286.19 207C2335.52 207 2379.52 218.333 2418.19 241C2457.52 263 2488.52 293 2511.19 331C2533.85 368.333 2545.19 410.667 2545.19 458C2545.19 505.333 2533.85 548.333 2511.19 587C2488.52 625 2457.52 655.333 2418.19 678C2379.52 700 2335.85 711 2287.19 711ZM2286.19 589C2310.85 589 2332.52 583.667 2351.19 573C2370.52 561.667 2385.19 546.333 2395.19 527C2405.85 507 2411.19 484.333 2411.19 459C2411.19 433.667 2405.85 411.333 2395.19 392C2384.52 372.667 2369.85 357.667 2351.19 347C2332.52 335.667 2310.85 330 2286.19 330C2262.19 330 2240.85 335.667 2222.19 347C2203.52 357.667 2188.85 372.667 2178.19 392C2167.52 411.333 2162.19 433.667 2162.19 459C2162.19 484.333 2167.52 507 2178.19 527C2188.85 546.333 2203.52 561.667 2222.19 573C2240.85 583.667 2262.19 589 2286.19 589ZM2954.52 701V424C2954.52 395.333 2945.52 372 2927.52 354C2909.52 336 2886.19 327 2857.52 327C2838.86 327 2822.19 331 2807.52 339C2792.86 347 2781.19 358.333 2772.52 373C2764.52 387.667 2760.52 404.667 2760.52 424L2709.52 398C2709.52 360 2717.52 327 2733.52 299C2750.19 270.333 2772.86 248 2801.52 232C2830.86 216 2863.86 208 2900.52 208C2935.86 208 2967.52 217 2995.52 235C3023.52 252.333 3045.52 275.333 3061.52 304C3077.52 332 3085.52 362.333 3085.52 395V701H2954.52ZM2629.52 701V218H2760.52V701H2629.52ZM3393.05 915C3341.71 915 3296.38 905.667 3257.05 887C3217.71 869 3186.38 843.333 3163.05 810L3246.05 727C3264.71 749 3285.38 765.667 3308.05 777C3331.38 789 3359.38 795 3392.05 795C3432.71 795 3464.71 784.667 3488.05 764C3512.05 743.333 3524.05 714.667 3524.05 678V557L3546.05 451L3525.05 345V218H3655.05V676C3655.05 724 3643.71 765.667 3621.05 801C3599.05 837 3568.38 865 3529.05 885C3489.71 905 3444.38 915 3393.05 915ZM3387.05 688C3343.71 688 3304.71 677.667 3270.05 657C3235.38 635.667 3208.05 606.667 3188.05 570C3168.71 533.333 3159.05 492.333 3159.05 447C3159.05 401.667 3168.71 361 3188.05 325C3208.05 289 3235.38 260.667 3270.05 240C3304.71 218.667 3343.71 208 3387.05 208C3423.05 208 3454.71 215 3482.05 229C3510.05 243 3532.05 262.333 3548.05 287C3564.05 311 3572.71 339.333 3574.05 372V524C3572.71 556 3563.71 584.667 3547.05 610C3531.05 634.667 3509.05 654 3481.05 668C3453.71 681.333 3422.38 688 3387.05 688ZM3413.05 569C3437.05 569 3457.71 564 3475.05 554C3493.05 543.333 3507.05 529 3517.05 511C3527.05 492.333 3532.05 471.333 3532.05 448C3532.05 424 3527.05 403 3517.05 385C3507.05 367 3493.05 353 3475.05 343C3457.71 332.333 3437.05 327 3413.05 327C3389.05 327 3368.05 332.333 3350.05 343C3332.05 353 3318.05 367.333 3308.05 386C3298.05 404 3293.05 424.667 3293.05 448C3293.05 470.667 3298.05 491.333 3308.05 510C3318.05 528 3332.05 542.333 3350.05 553C3368.05 563.667 3389.05 569 3413.05 569ZM4001.15 711C3950.48 711 3905.48 700.333 3866.15 679C3826.82 657 3795.48 627 3772.15 589C3749.48 551 3738.15 507.667 3738.15 459C3738.15 411 3749.15 368.333 3771.15 331C3793.82 293 3824.48 263 3863.15 241C3901.82 218.333 3944.82 207 3992.15 207C4038.82 207 4079.82 217.667 4115.15 239C4151.15 259.667 4179.15 288.333 4199.15 325C4219.82 361 4230.15 402 4230.15 448C4230.15 456.667 4229.48 465.667 4228.15 475C4227.48 483.667 4225.82 493.667 4223.15 505L3817.15 506V408L4162.15 407L4109.15 448C4107.82 419.333 4102.48 395.333 4093.15 376C4084.48 356.667 4071.48 342 4054.15 332C4037.48 321.333 4016.82 316 3992.15 316C3966.15 316 3943.48 322 3924.15 334C3904.82 345.333 3889.82 361.667 3879.15 383C3869.15 403.667 3864.15 428.333 3864.15 457C3864.15 486.333 3869.48 512 3880.15 534C3891.48 555.333 3907.48 572 3928.15 584C3948.82 595.333 3972.82 601 4000.15 601C4024.82 601 4047.15 597 4067.15 589C4087.15 580.333 4104.48 567.667 4119.15 551L4196.15 628C4172.82 655.333 4144.15 676 4110.15 690C4076.82 704 4040.48 711 4001.15 711ZM4539.16 711C4489.83 711 4445.5 700 4406.16 678C4366.83 656 4335.83 626 4313.16 588C4290.5 550 4279.16 507.333 4279.16 460C4279.16 412 4290.5 369 4313.16 331C4335.83 293 4366.83 263 4406.16 241C4446.16 218.333 4490.5 207 4539.16 207C4577.16 207 4612.16 214 4644.16 228C4676.16 242 4703.83 262 4727.16 288L4643.16 373C4630.5 359 4615.16 348.333 4597.16 341C4579.83 333.667 4560.5 330 4539.16 330C4515.16 330 4493.5 335.667 4474.16 347C4455.5 357.667 4440.5 372.667 4429.16 392C4418.5 410.667 4413.16 433 4413.16 459C4413.16 484.333 4418.5 507 4429.16 527C4440.5 546.333 4455.5 561.667 4474.16 573C4493.5 583.667 4515.16 589 4539.16 589C4561.16 589 4580.83 585.333 4598.16 578C4616.16 570 4631.5 558.667 4644.16 544L4729.16 629C4704.5 655.667 4676.16 676 4644.16 690C4612.16 704 4577.16 711 4539.16 711ZM5019.61 711C4970.94 711 4926.94 700 4887.61 678C4848.94 655.333 4817.94 625 4794.61 587C4771.94 548.333 4760.61 505.333 4760.61 458C4760.61 410.667 4771.94 368.333 4794.61 331C4817.28 293 4848.28 263 4887.61 241C4926.94 218.333 4970.61 207 5018.61 207C5067.94 207 5111.94 218.333 5150.61 241C5189.94 263 5220.94 293 5243.61 331C5266.28 368.333 5277.61 410.667 5277.61 458C5277.61 505.333 5266.28 548.333 5243.61 587C5220.94 625 5189.94 655.333 5150.61 678C5111.94 700 5068.28 711 5019.61 711ZM5018.61 589C5043.28 589 5064.94 583.667 5083.61 573C5102.94 561.667 5117.61 546.333 5127.61 527C5138.28 507 5143.61 484.333 5143.61 459C5143.61 433.667 5138.28 411.333 5127.61 392C5116.94 372.667 5102.28 357.667 5083.61 347C5064.94 335.667 5043.28 330 5018.61 330C4994.61 330 4973.28 335.667 4954.61 347C4935.94 357.667 4921.28 372.667 4910.61 392C4899.94 411.333 4894.61 433.667 4894.61 459C4894.61 484.333 4899.94 507 4910.61 527C4921.28 546.333 4935.94 561.667 4954.61 573C4973.28 583.667 4994.61 589 5018.61 589Z" fill="#317302"/>
<g clip-path="url(#clip1_156_880)">
<path d="M397.401 136.139C370.207 163.047 345.456 177.503 323.266 185.217C304.995 191.568 288.06 193.491 272.267 193.729C272.842 177.832 274.765 160.993 281.091 142.854C288.739 120.924 303.036 96.5146 330.197 69.6382C377.802 22.5313 427.384 15.5656 456.665 12.915C458.564 44.0747 446.702 87.3548 397.401 136.139Z" stroke="#317302" stroke-width="25"/>
<path d="M201.868 123.109C217.642 138.918 225.67 153.404 229.69 166.358C232.663 175.938 233.554 185.024 233.502 193.729C224.631 193.646 215.49 192.771 205.861 189.831C192.948 185.887 178.548 178.03 162.811 162.257C137.078 136.463 133.058 108.726 131.98 90.5148C150.271 89.45 174.829 96.005 201.868 123.109Z" stroke="#317302" stroke-width="25"/>
<path fill-rule="evenodd" clip-rule="evenodd" d="M257.5 218.637C115.287 218.637 0 334.139 0 476.617C0 561.916 41.3191 637.545 104.999 684.508C57.7807 642.4 28.0389 581.047 28.0389 512.734V480.63C28.0389 353.666 130.772 250.741 257.5 250.741C384.228 250.741 486.961 353.666 486.961 480.63V512.734C486.961 581.047 457.219 642.4 410.001 684.508C473.681 637.545 515 561.916 515 476.617C515 334.139 399.713 218.637 257.5 218.637Z" fill="#E45302"/>
<path d="M80.2957 472.33C80.2957 467.235 76.1636 463.104 71.0663 463.104C65.9691 463.104 61.8369 467.235 61.8369 472.33C61.8369 477.425 65.9691 481.555 71.0663 481.555C76.1636 481.555 80.2957 477.425 80.2957 472.33Z" fill="#E45302"/>
<path d="M440.242 472.33C440.242 467.235 436.11 463.104 431.013 463.104C425.915 463.104 421.783 467.235 421.783 472.33C421.783 477.425 425.915 481.555 431.013 481.555C436.11 481.555 440.242 477.425 440.242 472.33Z" fill="#E45302"/>
<path d="M257.5 289.671C252.403 289.671 248.271 293.801 248.271 298.896C248.271 303.991 252.403 308.121 257.5 308.121C262.597 308.121 266.729 303.991 266.729 298.896C266.729 293.801 262.597 289.671 257.5 289.671Z" fill="#E45302"/>
<path d="M104.588 392.679C107.136 388.267 105.624 382.625 101.21 380.077C96.7953 377.53 91.1507 379.042 88.6021 383.454C86.0535 387.866 87.5659 393.508 91.9803 396.056C96.3946 398.603 102.039 397.092 104.588 392.679Z" fill="#E45302"/>
<path d="M415.759 563.657C418.307 559.244 416.795 553.602 412.381 551.055C407.966 548.508 402.322 550.019 399.773 554.432C397.224 558.844 398.737 564.486 403.151 567.033C407.566 569.581 413.21 568.069 415.759 563.657Z" fill="#E45302"/>
<path d="M171.354 330.557C175.768 328.009 177.281 322.367 174.732 317.955C172.183 313.543 166.539 312.031 162.124 314.578C157.71 317.126 156.197 322.768 158.746 327.18C161.295 331.593 166.939 333.104 171.354 330.557Z" fill="#E45302"/>
<path d="M104.588 557.81C102.039 553.398 96.3945 551.886 91.9802 554.433C87.5658 556.981 86.0534 562.623 88.602 567.035C91.1506 571.447 96.7952 572.959 101.21 570.412C105.624 567.864 107.136 562.222 104.588 557.81Z" fill="#E45302"/>
<path d="M415.759 380.999C413.21 376.587 407.565 375.075 403.151 377.623C398.737 380.17 397.224 385.812 399.773 390.225C402.322 394.637 407.966 396.149 412.38 393.601C416.795 391.054 418.307 385.412 415.759 380.999Z" fill="#E45302"/>
<path d="M339.642 330.121C335.228 327.573 333.715 321.931 336.263 317.518C338.812 313.106 344.457 311.595 348.871 314.142C353.286 316.69 354.798 322.331 352.249 326.743C349.7 331.156 344.056 332.668 339.642 330.121Z" fill="#E45302"/>
<path d="M330.467 656.235C317.228 644.809 307.992 635.94 307.772 610.666C307.551 585.392 316.232 576.366 329.667 564.708C344.897 576.116 352.141 585.002 352.363 610.277C352.583 635.551 343.497 643.783 330.467 656.235Z" fill="#252525"/>
<path d="M176.004 658.776C189.042 647.121 197.32 637.701 197.1 612.427C196.879 587.153 188.042 578.28 174.405 566.858C159.377 578.53 152.289 587.542 152.51 612.816C152.73 638.091 162.758 646.555 176.004 658.776Z" fill="#252525"/>
<path fill-rule="evenodd" clip-rule="evenodd" d="M201.628 712.033L177.265 662.017L177.627 662.346C192.063 649.675 202.117 639.859 201.877 612.387C201.637 584.914 191.856 575.273 176.759 562.86C176.471 563.078 176.187 563.297 175.905 563.514L230 455.115C238.779 437.525 263.212 437.312 272.295 454.746L327.971 561.604C313.137 574.247 303.558 584.072 303.797 611.498C304.034 638.704 314.063 648.421 328.491 660.667L305.134 710.82C270.933 717.04 235.901 717.435 201.628 712.033Z" fill="#317302"/>
<path fill-rule="evenodd" clip-rule="evenodd" d="M201.628 712.033L177.265 662.017L177.627 662.346C192.063 649.675 202.117 639.859 201.877 612.387C201.637 584.914 191.856 575.273 176.759 562.86C176.471 563.078 176.187 563.297 175.905 563.514L230 455.115C238.779 437.525 263.212 437.312 272.295 454.746L327.971 561.604C313.137 574.247 303.558 584.072 303.797 611.498C304.034 638.704 314.063 648.421 328.491 660.667L305.134 710.82C270.933 717.04 235.901 717.435 201.628 712.033Z" fill="#317302"/>
<path d="M92.118 649.402C87.6274 645.36 91.4306 633.821 100.613 623.628C109.795 613.435 120.878 608.448 125.369 612.49C129.86 616.531 126.056 628.071 116.874 638.264C107.692 648.457 96.6086 653.444 92.118 649.402Z" fill="#317302"/>
<path d="M61.2031 657.54C58.3057 662.556 46.3231 661.063 34.4392 654.205C22.5553 647.347 15.2704 637.721 18.1678 632.705C21.0652 627.689 33.0478 629.182 44.9317 636.04C56.8156 642.898 64.1006 652.524 61.2031 657.54Z" fill="#317302"/>
<path d="M78.163 638.889C72.7005 640.822 64.559 631.908 59.9783 618.979C55.3977 606.049 56.1126 594.001 61.5751 592.067C67.0376 590.134 75.1791 599.048 79.7597 611.977C84.3403 624.906 83.6254 636.955 78.163 638.889Z" fill="#317302"/>
<path d="M421.632 649.402C426.123 645.36 422.319 633.821 413.137 623.628C403.955 613.435 392.872 608.448 388.381 612.49C383.89 616.531 387.694 628.071 396.876 638.264C406.058 648.457 417.141 653.443 421.632 649.402Z" fill="#317302"/>
<path d="M452.548 657.54C455.445 662.556 467.428 661.063 479.312 654.205C491.196 647.347 498.481 637.721 495.583 632.705C492.686 627.689 480.703 629.182 468.819 636.04C456.935 642.898 449.65 652.524 452.548 657.54Z" fill="#317302"/>
<path d="M435.588 638.889C441.05 640.822 449.192 631.908 453.773 618.979C458.353 606.049 457.638 594.001 452.176 592.067C446.713 590.134 438.572 599.048 433.991 611.977C429.411 624.906 430.126 636.955 435.588 638.889Z" fill="#317302"/>
</g>
</g>
<defs>
<clipPath id="clip0_156_880">
<rect width="5304" height="901" fill="white"/>
</clipPath>
<clipPath id="clip1_156_880">
<rect width="515" height="762" fill="white"/>
</clipPath>
</defs>
</svg>
