<svg width="4627" height="898" viewBox="0 0 4627 898" fill="none" xmlns="http://www.w3.org/2000/svg">
<path d="M113 684V-1.52588e-05H244V684H113ZM7.59959e-07 316V201H357V316H7.59959e-07ZM620.953 694C576.953 694 537.286 683 501.953 661C466.62 639 438.953 609 418.953 571C398.953 533 388.953 490.333 388.953 443C388.953 395 398.953 352 418.953 314C438.953 276 466.62 246 501.953 224C537.286 202 576.953 191 620.953 191C655.62 191 686.62 198 713.953 212C741.286 226 762.953 245.667 778.953 271C795.62 295.667 804.62 323.667 805.953 355V529C804.62 561 795.62 589.333 778.953 614C762.953 638.667 741.286 658.333 713.953 673C686.62 687 655.62 694 620.953 694ZM644.953 573C681.62 573 711.286 561 733.953 537C756.62 512.333 767.953 480.667 767.953 442C767.953 416.667 762.62 394.333 751.953 375C741.953 355 727.62 339.667 708.953 329C690.953 317.667 669.62 312 644.953 312C620.953 312 599.62 317.667 580.953 329C562.953 339.667 548.62 355 537.953 375C527.953 394.333 522.953 416.667 522.953 442C522.953 468 527.953 491 537.953 511C548.62 530.333 562.953 545.667 580.953 557C599.62 567.667 620.953 573 644.953 573ZM760.953 684V554L781.953 436L760.953 320V201H890.953V684H760.953ZM1006.84 684V201H1137.84V684H1006.84ZM1137.84 417L1086.84 383C1092.84 323.667 1110.18 277 1138.84 243C1167.51 208.333 1208.84 191 1262.84 191C1286.18 191 1307.18 195 1325.84 203C1344.51 210.333 1361.51 222.667 1376.84 240L1294.84 334C1287.51 326 1278.51 320 1267.84 316C1257.84 312 1246.18 310 1232.84 310C1204.84 310 1181.84 319 1163.84 337C1146.51 354.333 1137.84 381 1137.84 417ZM1636.19 694C1587.52 694 1543.52 683 1504.19 661C1465.52 638.333 1434.52 608 1411.19 570C1388.52 531.333 1377.19 488.333 1377.19 441C1377.19 393.667 1388.52 351.333 1411.19 314C1433.85 276 1464.85 246 1504.19 224C1543.52 201.333 1587.19 190 1635.19 190C1684.52 190 1728.52 201.333 1767.19 224C1806.52 246 1837.52 276 1860.19 314C1882.85 351.333 1894.19 393.667 1894.19 441C1894.19 488.333 1882.85 531.333 1860.19 570C1837.52 608 1806.52 638.333 1767.19 661C1728.52 683 1684.85 694 1636.19 694ZM1635.19 572C1659.85 572 1681.52 566.667 1700.19 556C1719.52 544.667 1734.19 529.333 1744.19 510C1754.85 490 1760.19 467.333 1760.19 442C1760.19 416.667 1754.85 394.333 1744.19 375C1733.52 355.667 1718.85 340.667 1700.19 330C1681.52 318.667 1659.85 313 1635.19 313C1611.19 313 1589.85 318.667 1571.19 330C1552.52 340.667 1537.85 355.667 1527.19 375C1516.52 394.333 1511.19 416.667 1511.19 442C1511.19 467.333 1516.52 490 1527.19 510C1537.85 529.333 1552.52 544.667 1571.19 556C1589.85 566.667 1611.19 572 1635.19 572ZM2303.52 684V407C2303.52 378.333 2294.52 355 2276.52 337C2258.52 319 2235.19 310 2206.52 310C2187.86 310 2171.19 314 2156.52 322C2141.86 330 2130.19 341.333 2121.52 356C2113.52 370.667 2109.52 387.667 2109.52 407L2058.52 381C2058.52 343 2066.52 310 2082.52 282C2099.19 253.333 2121.86 231 2150.52 215C2179.86 199 2212.86 191 2249.52 191C2284.86 191 2316.52 200 2344.52 218C2372.52 235.333 2394.52 258.333 2410.52 287C2426.52 315 2434.52 345.333 2434.52 378V684H2303.52ZM1978.52 684V201H2109.52V684H1978.52ZM2742.05 898C2690.71 898 2645.38 888.667 2606.05 870C2566.71 852 2535.38 826.333 2512.05 793L2595.05 710C2613.71 732 2634.38 748.667 2657.05 760C2680.38 772 2708.38 778 2741.05 778C2781.71 778 2813.71 767.667 2837.05 747C2861.05 726.333 2873.05 697.667 2873.05 661V540L2895.05 434L2874.05 328V201H3004.05V659C3004.05 707 2992.71 748.667 2970.05 784C2948.05 820 2917.38 848 2878.05 868C2838.71 888 2793.38 898 2742.05 898ZM2736.05 671C2692.71 671 2653.71 660.667 2619.05 640C2584.38 618.667 2557.05 589.667 2537.05 553C2517.71 516.333 2508.05 475.333 2508.05 430C2508.05 384.667 2517.71 344 2537.05 308C2557.05 272 2584.38 243.667 2619.05 223C2653.71 201.667 2692.71 191 2736.05 191C2772.05 191 2803.71 198 2831.05 212C2859.05 226 2881.05 245.333 2897.05 270C2913.05 294 2921.71 322.333 2923.05 355V507C2921.71 539 2912.71 567.667 2896.05 593C2880.05 617.667 2858.05 637 2830.05 651C2802.71 664.333 2771.38 671 2736.05 671ZM2762.05 552C2786.05 552 2806.71 547 2824.05 537C2842.05 526.333 2856.05 512 2866.05 494C2876.05 475.333 2881.05 454.333 2881.05 431C2881.05 407 2876.05 386 2866.05 368C2856.05 350 2842.05 336 2824.05 326C2806.71 315.333 2786.05 310 2762.05 310C2738.05 310 2717.05 315.333 2699.05 326C2681.05 336 2667.05 350.333 2657.05 369C2647.05 387 2642.05 407.667 2642.05 431C2642.05 453.667 2647.05 474.333 2657.05 493C2667.05 511 2681.05 525.333 2699.05 536C2717.05 546.667 2738.05 552 2762.05 552ZM3350.15 694C3299.48 694 3254.48 683.333 3215.15 662C3175.82 640 3144.48 610 3121.15 572C3098.48 534 3087.15 490.667 3087.15 442C3087.15 394 3098.15 351.333 3120.15 314C3142.82 276 3173.48 246 3212.15 224C3250.82 201.333 3293.82 190 3341.15 190C3387.82 190 3428.82 200.667 3464.15 222C3500.15 242.667 3528.15 271.333 3548.15 308C3568.82 344 3579.15 385 3579.15 431C3579.15 439.667 3578.48 448.667 3577.15 458C3576.48 466.667 3574.82 476.667 3572.15 488L3166.15 489V391L3511.15 390L3458.15 431C3456.82 402.333 3451.48 378.333 3442.15 359C3433.48 339.667 3420.48 325 3403.15 315C3386.48 304.333 3365.82 299 3341.15 299C3315.15 299 3292.48 305 3273.15 317C3253.82 328.333 3238.82 344.667 3228.15 366C3218.15 386.667 3213.15 411.333 3213.15 440C3213.15 469.333 3218.48 495 3229.15 517C3240.48 538.333 3256.48 555 3277.15 567C3297.82 578.333 3321.82 584 3349.15 584C3373.82 584 3396.15 580 3416.15 572C3436.15 563.333 3453.48 550.667 3468.15 534L3545.15 611C3521.82 638.333 3493.15 659 3459.15 673C3425.82 687 3389.48 694 3350.15 694ZM3888.16 694C3838.83 694 3794.5 683 3755.16 661C3715.83 639 3684.83 609 3662.16 571C3639.5 533 3628.16 490.333 3628.16 443C3628.16 395 3639.5 352 3662.16 314C3684.83 276 3715.83 246 3755.16 224C3795.16 201.333 3839.5 190 3888.16 190C3926.16 190 3961.16 197 3993.16 211C4025.16 225 4052.83 245 4076.16 271L3992.16 356C3979.5 342 3964.16 331.333 3946.16 324C3928.83 316.667 3909.5 313 3888.16 313C3864.16 313 3842.5 318.667 3823.16 330C3804.5 340.667 3789.5 355.667 3778.16 375C3767.5 393.667 3762.16 416 3762.16 442C3762.16 467.333 3767.5 490 3778.16 510C3789.5 529.333 3804.5 544.667 3823.16 556C3842.5 566.667 3864.16 572 3888.16 572C3910.16 572 3929.83 568.333 3947.16 561C3965.16 553 3980.5 541.667 3993.16 527L4078.16 612C4053.5 638.667 4025.16 659 3993.16 673C3961.16 687 3926.16 694 3888.16 694ZM4368.61 694C4319.94 694 4275.94 683 4236.61 661C4197.94 638.333 4166.94 608 4143.61 570C4120.94 531.333 4109.61 488.333 4109.61 441C4109.61 393.667 4120.94 351.333 4143.61 314C4166.28 276 4197.28 246 4236.61 224C4275.94 201.333 4319.61 190 4367.61 190C4416.94 190 4460.94 201.333 4499.61 224C4538.94 246 4569.94 276 4592.61 314C4615.28 351.333 4626.61 393.667 4626.61 441C4626.61 488.333 4615.28 531.333 4592.61 570C4569.94 608 4538.94 638.333 4499.61 661C4460.94 683 4417.28 694 4368.61 694ZM4367.61 572C4392.28 572 4413.94 566.667 4432.61 556C4451.94 544.667 4466.61 529.333 4476.61 510C4487.28 490 4492.61 467.333 4492.61 442C4492.61 416.667 4487.28 394.333 4476.61 375C4465.94 355.667 4451.28 340.667 4432.61 330C4413.94 318.667 4392.28 313 4367.61 313C4343.61 313 4322.28 318.667 4303.61 330C4284.94 340.667 4270.28 355.667 4259.61 375C4248.94 394.333 4243.61 416.667 4243.61 442C4243.61 467.333 4248.94 490 4259.61 510C4270.28 529.333 4284.94 544.667 4303.61 556C4322.28 566.667 4343.61 572 4367.61 572Z" fill="white"/>
</svg>
