<svg width="5260" height="901" viewBox="0 0 5260 901" fill="none" xmlns="http://www.w3.org/2000/svg">
<g clip-path="url(#clip0_156_880)">
<path d="M720 700V16H851V700H720ZM607 332V217H964V332H607ZM1227.95 710C1183.95 710 1144.29 699 1108.95 677C1073.62 655 1045.95 625 1025.95 587C1005.95 549 995.953 506.333 995.953 459C995.953 411 1005.95 368 1025.95 330C1045.95 292 1073.62 262 1108.95 240C1144.29 218 1183.95 207 1227.95 207C1262.62 207 1293.62 214 1320.95 228C1348.29 242 1369.95 261.667 1385.95 287C1402.62 311.667 1411.62 339.667 1412.95 371V545C1411.62 577 1402.62 605.333 1385.95 630C1369.95 654.667 1348.29 674.333 1320.95 689C1293.62 703 1262.62 710 1227.95 710ZM1251.95 589C1288.62 589 1318.29 577 1340.95 553C1363.62 528.333 1374.95 496.667 1374.95 458C1374.95 432.667 1369.62 410.333 1358.95 391C1348.95 371 1334.62 355.667 1315.95 345C1297.95 333.667 1276.62 328 1251.95 328C1227.95 328 1206.62 333.667 1187.95 345C1169.95 355.667 1155.62 371 1144.95 391C1134.95 410.333 1129.95 432.667 1129.95 458C1129.95 484 1134.95 507 1144.95 527C1155.62 546.333 1169.95 561.667 1187.95 573C1206.62 583.667 1227.95 589 1251.95 589ZM1367.95 700V570L1388.95 452L1367.95 336V217H1497.95V700H1367.95ZM1613.84 700V217H1744.84V700H1613.84ZM1744.84 433L1693.84 399C1699.84 339.667 1717.18 293 1745.84 259C1774.51 224.333 1815.84 207 1869.84 207C1893.18 207 1914.18 211 1932.84 219C1951.51 226.333 1968.51 238.667 1983.84 256L1901.84 350C1894.51 342 1885.51 336 1874.84 332C1864.84 328 1853.18 326 1839.84 326C1811.84 326 1788.84 335 1770.84 353C1753.51 370.333 1744.84 397 1744.84 433ZM2243.19 710C2194.52 710 2150.52 699 2111.19 677C2072.52 654.333 2041.52 624 2018.19 586C1995.52 547.333 1984.19 504.333 1984.19 457C1984.19 409.667 1995.52 367.333 2018.19 330C2040.85 292 2071.85 262 2111.19 240C2150.52 217.333 2194.19 206 2242.19 206C2291.52 206 2335.52 217.333 2374.19 240C2413.52 262 2444.52 292 2467.19 330C2489.85 367.333 2501.19 409.667 2501.19 457C2501.19 504.333 2489.85 547.333 2467.19 586C2444.52 624 2413.52 654.333 2374.19 677C2335.52 699 2291.85 710 2243.19 710ZM2242.19 588C2266.85 588 2288.52 582.667 2307.19 572C2326.52 560.667 2341.19 545.333 2351.19 526C2361.85 506 2367.19 483.333 2367.19 458C2367.19 432.667 2361.85 410.333 2351.19 391C2340.52 371.667 2325.85 356.667 2307.19 346C2288.52 334.667 2266.85 329 2242.19 329C2218.19 329 2196.85 334.667 2178.19 346C2159.52 356.667 2144.85 371.667 2134.19 391C2123.52 410.333 2118.19 432.667 2118.19 458C2118.19 483.333 2123.52 506 2134.19 526C2144.85 545.333 2159.52 560.667 2178.19 572C2196.85 582.667 2218.19 588 2242.19 588ZM2910.52 700V423C2910.52 394.333 2901.52 371 2883.52 353C2865.52 335 2842.19 326 2813.52 326C2794.86 326 2778.19 330 2763.52 338C2748.86 346 2737.19 357.333 2728.52 372C2720.52 386.667 2716.52 403.667 2716.52 423L2665.52 397C2665.52 359 2673.52 326 2689.52 298C2706.19 269.333 2728.86 247 2757.52 231C2786.86 215 2819.86 207 2856.52 207C2891.86 207 2923.52 216 2951.52 234C2979.52 251.333 3001.52 274.333 3017.52 303C3033.52 331 3041.52 361.333 3041.52 394V700H2910.52ZM2585.52 700V217H2716.52V700H2585.52ZM3349.05 914C3297.71 914 3252.38 904.667 3213.05 886C3173.71 868 3142.38 842.333 3119.05 809L3202.05 726C3220.71 748 3241.38 764.667 3264.05 776C3287.38 788 3315.38 794 3348.05 794C3388.71 794 3420.71 783.667 3444.05 763C3468.05 742.333 3480.05 713.667 3480.05 677V556L3502.05 450L3481.05 344V217H3611.05V675C3611.05 723 3599.71 764.667 3577.05 800C3555.05 836 3524.38 864 3485.05 884C3445.71 904 3400.38 914 3349.05 914ZM3343.05 687C3299.71 687 3260.71 676.667 3226.05 656C3191.38 634.667 3164.05 605.667 3144.05 569C3124.71 532.333 3115.05 491.333 3115.05 446C3115.05 400.667 3124.71 360 3144.05 324C3164.05 288 3191.38 259.667 3226.05 239C3260.71 217.667 3299.71 207 3343.05 207C3379.05 207 3410.71 214 3438.05 228C3466.05 242 3488.05 261.333 3504.05 286C3520.05 310 3528.71 338.333 3530.05 371V523C3528.71 555 3519.71 583.667 3503.05 609C3487.05 633.667 3465.05 653 3437.05 667C3409.71 680.333 3378.38 687 3343.05 687ZM3369.05 568C3393.05 568 3413.71 563 3431.05 553C3449.05 542.333 3463.05 528 3473.05 510C3483.05 491.333 3488.05 470.333 3488.05 447C3488.05 423 3483.05 402 3473.05 384C3463.05 366 3449.05 352 3431.05 342C3413.71 331.333 3393.05 326 3369.05 326C3345.05 326 3324.05 331.333 3306.05 342C3288.05 352 3274.05 366.333 3264.05 385C3254.05 403 3249.05 423.667 3249.05 447C3249.05 469.667 3254.05 490.333 3264.05 509C3274.05 527 3288.05 541.333 3306.05 552C3324.05 562.667 3345.05 568 3369.05 568ZM3957.15 710C3906.48 710 3861.48 699.333 3822.15 678C3782.82 656 3751.48 626 3728.15 588C3705.48 550 3694.15 506.667 3694.15 458C3694.15 410 3705.15 367.333 3727.15 330C3749.82 292 3780.48 262 3819.15 240C3857.82 217.333 3900.82 206 3948.15 206C3994.82 206 4035.82 216.667 4071.15 238C4107.15 258.667 4135.15 287.333 4155.15 324C4175.82 360 4186.15 401 4186.15 447C4186.15 455.667 4185.48 464.667 4184.15 474C4183.48 482.667 4181.82 492.667 4179.15 504L3773.15 505V407L4118.15 406L4065.15 447C4063.82 418.333 4058.48 394.333 4049.15 375C4040.48 355.667 4027.48 341 4010.15 331C3993.48 320.333 3972.82 315 3948.15 315C3922.15 315 3899.48 321 3880.15 333C3860.82 344.333 3845.82 360.667 3835.15 382C3825.15 402.667 3820.15 427.333 3820.15 456C3820.15 485.333 3825.48 511 3836.15 533C3847.48 554.333 3863.48 571 3884.15 583C3904.82 594.333 3928.82 600 3956.15 600C3980.82 600 4003.15 596 4023.15 588C4043.15 579.333 4060.48 566.667 4075.15 550L4152.15 627C4128.82 654.333 4100.15 675 4066.15 689C4032.82 703 3996.48 710 3957.15 710ZM4495.16 710C4445.83 710 4401.5 699 4362.16 677C4322.83 655 4291.83 625 4269.16 587C4246.5 549 4235.16 506.333 4235.16 459C4235.16 411 4246.5 368 4269.16 330C4291.83 292 4322.83 262 4362.16 240C4402.16 217.333 4446.5 206 4495.16 206C4533.16 206 4568.16 213 4600.16 227C4632.16 241 4659.83 261 4683.16 287L4599.16 372C4586.5 358 4571.16 347.333 4553.16 340C4535.83 332.667 4516.5 329 4495.16 329C4471.16 329 4449.5 334.667 4430.16 346C4411.5 356.667 4396.5 371.667 4385.16 391C4374.5 409.667 4369.16 432 4369.16 458C4369.16 483.333 4374.5 506 4385.16 526C4396.5 545.333 4411.5 560.667 4430.16 572C4449.5 582.667 4471.16 588 4495.16 588C4517.16 588 4536.83 584.333 4554.16 577C4572.16 569 4587.5 557.667 4600.16 543L4685.16 628C4660.5 654.667 4632.16 675 4600.16 689C4568.16 703 4533.16 710 4495.16 710ZM4975.61 710C4926.94 710 4882.94 699 4843.61 677C4804.94 654.333 4773.94 624 4750.61 586C4727.94 547.333 4716.61 504.333 4716.61 457C4716.61 409.667 4727.94 367.333 4750.61 330C4773.28 292 4804.28 262 4843.61 240C4882.94 217.333 4926.61 206 4974.61 206C5023.94 206 5067.94 217.333 5106.61 240C5145.94 262 5176.94 292 5199.61 330C5222.28 367.333 5233.61 409.667 5233.61 457C5233.61 504.333 5222.28 547.333 5199.61 586C5176.94 624 5145.94 654.333 5106.61 677C5067.94 699 5024.28 710 4975.61 710ZM4974.61 588C4999.28 588 5020.94 582.667 5039.61 572C5058.94 560.667 5073.61 545.333 5083.61 526C5094.28 506 5099.61 483.333 5099.61 458C5099.61 432.667 5094.28 410.333 5083.61 391C5072.94 371.667 5058.28 356.667 5039.61 346C5020.94 334.667 4999.28 329 4974.61 329C4950.61 329 4929.28 334.667 4910.61 346C4891.94 356.667 4877.28 371.667 4866.61 391C4855.94 410.333 4850.61 432.667 4850.61 458C4850.61 483.333 4855.94 506 4866.61 526C4877.28 545.333 4891.94 560.667 4910.61 572C4929.28 582.667 4950.61 588 4974.61 588Z" fill="#317302"/>
<g clip-path="url(#clip1_156_880)">
<path d="M402.032 139.022C374.521 166.499 349.481 181.261 327.033 189.138C308.549 195.624 291.417 197.587 275.439 197.83C276.021 181.597 277.967 164.401 284.366 145.879C292.104 123.484 306.567 98.5579 334.044 71.1125C382.204 23.0083 432.364 15.8952 461.986 13.1885C463.907 45.0078 451.907 89.2042 402.032 139.022Z" stroke="#317302" stroke-width="25"/>
<path d="M204.22 125.714C220.177 141.858 228.298 156.651 232.366 169.879C235.373 179.661 236.274 188.941 236.222 197.83C227.247 197.745 218 196.851 208.259 193.849C195.195 189.821 180.628 181.798 164.708 165.691C138.674 139.351 134.608 111.027 133.518 92.4301C152.021 91.3428 176.865 98.0366 204.22 125.714Z" stroke="#317302" stroke-width="25"/>
<path fill-rule="evenodd" clip-rule="evenodd" d="M260.5 223.266C116.63 223.266 0 341.213 0 486.708C0 573.812 41.8005 651.042 106.222 699C58.4539 656 28.3656 593.348 28.3656 523.589V490.805C28.3656 361.153 132.296 256.05 260.5 256.05C388.704 256.05 492.634 361.153 492.634 490.805V523.589C492.634 593.348 462.546 656 414.778 699C479.2 651.042 521 573.812 521 486.708C521 341.213 404.37 223.266 260.5 223.266Z" fill="#E45302"/>
<path d="M84.9658 472.908H56.9551C51.7984 472.908 47.6182 477.126 47.6182 482.329C47.6182 487.531 51.7984 491.749 56.9551 491.749H84.9658C90.1225 491.749 94.3027 487.531 94.3027 482.329C94.3027 477.126 90.1225 472.908 84.9658 472.908Z" fill="#E45302"/>
<path d="M464.045 472.908H436.034C430.878 472.908 426.697 477.126 426.697 482.329C426.697 487.531 430.878 491.749 436.034 491.749H464.045C469.202 491.749 473.382 487.531 473.382 482.329C473.382 477.126 469.202 472.908 464.045 472.908Z" fill="#E45302"/>
<path d="M251.163 659.434V687.696C251.163 692.899 255.343 697.116 260.5 697.116C265.657 697.116 269.837 692.899 269.837 687.696V659.434C269.837 654.231 265.657 650.014 260.5 650.014C255.343 650.014 251.163 654.231 251.163 659.434Z" fill="#E45302"/>
<path d="M251.163 276.963V305.224C251.163 310.427 255.343 314.645 260.5 314.645C265.657 314.645 269.837 310.427 269.837 305.224V276.963C269.837 271.76 265.657 267.542 260.5 267.542C255.343 267.542 251.163 271.76 251.163 276.963Z" fill="#E45302"/>
<path d="M307.184 374.616L251.163 472.516C248.584 477.022 250.114 482.784 254.58 485.385C259.046 487.986 264.756 486.443 267.335 481.937L323.356 384.036C325.934 379.531 324.404 373.769 319.939 371.168C315.473 368.566 309.762 370.11 307.184 374.616Z" fill="#317302"/>
<path d="M266.401 471.93L243.059 431.138C240.481 426.632 234.77 425.088 230.305 427.69C225.839 430.291 224.309 436.053 226.887 440.558L250.229 481.35C252.808 485.856 258.518 487.4 262.984 484.798C267.45 482.197 268.98 476.436 266.401 471.93Z" fill="#317302"/>
<path d="M113.152 385.617L88.8936 371.487C84.4278 368.885 78.7175 370.429 76.1392 374.935C73.5608 379.44 75.0909 385.202 79.5567 387.803L103.815 401.934C108.281 404.535 113.991 402.992 116.569 398.486C119.148 393.98 117.617 388.219 113.152 385.617Z" fill="#E45302"/>
<path d="M441.443 576.853L417.185 562.722C412.719 560.121 407.008 561.664 404.43 566.17C401.852 570.676 403.382 576.437 407.848 579.039L432.106 593.169C436.572 595.771 442.282 594.227 444.86 589.721C447.439 585.216 445.908 579.454 441.443 576.853Z" fill="#E45302"/>
<path d="M180.818 324.24L166.813 299.765C164.235 295.259 158.524 293.715 154.059 296.317C149.593 298.918 148.063 304.68 150.641 309.185L164.646 333.66C167.225 338.166 172.935 339.71 177.401 337.109C181.867 334.507 183.397 328.746 180.818 324.24Z" fill="#E45302"/>
<path d="M370.358 655.47L356.353 630.995C353.775 626.49 348.064 624.946 343.599 627.547C339.133 630.149 337.603 635.91 340.181 640.416L354.186 664.891C356.765 669.397 362.475 670.94 366.941 668.339C371.407 665.738 372.937 659.976 370.358 655.47Z" fill="#E45302"/>
<path d="M103.815 562.723L79.5567 576.853C75.0909 579.455 73.5608 585.216 76.1392 589.722C78.7175 594.228 84.4278 595.771 88.8936 593.17L113.152 579.039C117.617 576.438 119.148 570.676 116.569 566.171C113.991 561.665 108.281 560.121 103.815 562.723Z" fill="#E45302"/>
<path d="M432.106 371.486L407.848 385.617C403.382 388.218 401.852 393.98 404.43 398.486C407.008 402.991 412.719 404.535 417.185 401.934L441.443 387.803C445.908 385.202 447.439 379.44 444.86 374.934C442.282 370.429 436.572 368.885 432.106 371.486Z" fill="#E45302"/>
<path d="M164.646 630.995L150.641 655.471C148.063 659.976 149.593 665.738 154.059 668.339C158.524 670.941 164.235 669.397 166.813 664.891L180.819 640.416C183.397 635.91 181.867 630.149 177.401 627.547C172.935 624.946 167.225 626.49 164.646 630.995Z" fill="#E45302"/>
<path d="M354.186 299.766L340.18 324.241C337.602 328.747 339.132 334.508 343.598 337.11C348.064 339.711 353.774 338.167 356.352 333.662L370.358 309.186C372.936 304.681 371.406 298.919 366.94 296.318C362.474 293.716 356.764 295.26 354.186 299.766Z" fill="#E45302"/>
</g>
</g>
<defs>
<clipPath id="clip0_156_880">
<rect width="5260" height="901" fill="white"/>
</clipPath>
<clipPath id="clip1_156_880">
<rect width="521" height="699" fill="white"/>
</clipPath>
</defs>
</svg>
